<?xml version="1.0" encoding="UTF-8"?>
<svg id="Capa_2" data-name="Capa 2" xmlns="http://www.w3.org/2000/svg" viewBox="0 0 633.7 180.51">
  <defs>
    <style>
      .cls-1 {
        stroke-width: .14px;
      }

      .cls-1, .cls-2, .cls-3, .cls-4, .cls-5 {
        fill: #fff;
      }

      .cls-1, .cls-4 {
        stroke: #fff;
        stroke-miterlimit: 10;
      }

      .cls-3 {
        stroke: #2d2d76;
        stroke-width: 1.52px;
      }

      .cls-3, .cls-5 {
        stroke-linecap: round;
        stroke-linejoin: round;
      }

      .cls-4 {
        stroke-width: .31px;
      }

      .cls-5 {
        stroke: #2d2e77;
        stroke-width: 3.05px;
      }
    </style>
  </defs>
  <g id="Capa_1-2" data-name="Capa 1">
    <g>
      <path class="cls-4" d="M54.75,180.31l5.22-10.21,2.29-.32c.87-.08,1.5,0,2.06.4.55.4.79.87.79,1.58,0,.4-.08.79-.24,1.19-.16.4-.39.87-.71,1.19-.4.4-.85.75-1.35,1.03-.55.32-1.27.48-2.06.55l-2.06.24-2.06,4.04-1.9.32ZM61.95,171.29l-.79.08-1.58,3.16,1.42-.16c.4-.08.71-.16,1.03-.32.32-.16.55-.32.71-.55l.47-.71c.08-.24.16-.47.16-.71,0-.32-.16-.47-.39-.63-.24-.16-.55-.24-1.03-.16h0ZM65.19,179.04l-2.14.24,8.39-10.6,1.5-.16-.24,9.57-1.74.24.08-2.29-3.96.48-1.9,2.53ZM71.21,171.45l-2.85,3.56,2.77-.32.08-3.24ZM74.85,177.86l5.22-10.21,2.21-.24c.79-.08,1.5,0,1.98.4.5.34.8.9.79,1.5,0,.32,0,.63-.16,1.03-.08.32-.32.71-.55,1.03s-.63.63-1.03.87c-.4.24-.95.47-1.5.63l1.35,4.04-1.82.24-1.26-3.88-1.19.16-2.21,4.27-1.82.16ZM82.12,168.84l-.87.08-1.5,2.93,1.42-.16c.4-.08.71-.16.95-.24.24-.08.47-.32.71-.47.16-.16.32-.4.39-.63.08-.24.16-.48.16-.71s-.16-.48-.32-.63c-.24-.16-.55-.24-.95-.16h0ZM95.81,175.64c-.24.71-.55,1.26-1.03,1.74-.47.4-1.03.71-1.74.79-.4.08-.79,0-1.11-.08s-.71-.24-.95-.47c-.31-.15-.56-.4-.71-.71-.21-.23-.38-.5-.47-.79-.87-.08-1.66-.4-2.22-.95-.55-.55-.87-1.35-.95-2.29,0-.71.08-1.5.4-2.29s.71-1.5,1.35-2.14c.59-.68,1.29-1.27,2.06-1.74.84-.5,1.79-.8,2.77-.87.63-.08,1.19-.08,1.66.08.47.08.95.32,1.35.63.4.32.63.63.87,1.11.24.47.32.95.32,1.5,0,.63-.08,1.35-.4,2.06-.24.71-.63,1.35-1.11,1.98-.47.63-1.11,1.19-1.82,1.66-.71.48-1.5.87-2.29,1.11.08.32.32.55.63.71.32.24.71.32,1.19.24.4-.08.71-.16,1.03-.32.32-.16.63-.47.95-.95h.24ZM91.07,174.53c.63-.08,1.19-.24,1.74-.63.55-.32,1.11-.71,1.5-1.19.4-.47.79-1.03,1.03-1.58s.4-1.19.4-1.74c0-.71-.32-1.19-.79-1.58-.55-.4-1.19-.48-1.98-.4-.63.08-1.27.32-1.82.63-.55.32-1.11.71-1.5,1.19-.4.48-.79,1.03-1.03,1.58-.24.55-.39,1.19-.32,1.74,0,.71.32,1.19.79,1.58.55.4,1.27.48,1.98.4ZM102.77,174.69c-.87.08-1.5,0-2.06-.24-.47-.24-.87-.63-1.03-1.03-.24-.47-.24-.95-.16-1.58.08-.55.24-1.19.55-1.74l2.69-5.22,1.98-.24-3.01,5.78c-.24.48-.39.87-.39,1.27,0,.32,0,.63.16.87s.32.4.63.48c.32.08.63.08.95.08.71-.08,1.35-.32,1.74-.79.47-.48.87-1.03,1.35-1.82l3.32-6.33,1.98-.24-3.32,6.49c-.4.71-.71,1.35-1.11,1.82-.32.47-.71.95-1.11,1.26-.39.32-.87.63-1.35.79-.71.16-1.26.32-1.82.4h0ZM112.11,171.92l3.4-.4-.79,1.5-5.38.63,5.14-10.21,5.3-.63-.79,1.5-3.32.4-1.42,2.77,3.01-.4-.71,1.5-3.01.4-1.42,2.93ZM130.15,168.36c0,.4-.08.79-.24,1.19-.16.4-.4.71-.71,1.03-.32.33-.7.59-1.11.79-.48.24-.95.32-1.5.4s-.95.08-1.35,0c-.4-.08-.71-.16-1.03-.32-.32-.16-.55-.32-.71-.55s-.39-.4-.47-.63l1.26-1.27c.24.4.55.79.95,1.03.4.24.87.32,1.42.24.55-.08,1.03-.32,1.35-.63.32-.32.48-.71.4-1.11,0-.4-.16-.63-.4-.87-.24-.24-.55-.48-.87-.71-.33-.25-.62-.54-.87-.87-.24-.32-.4-.79-.47-1.42,0-.4.08-.79.24-1.11.16-.4.4-.71.63-.95.32-.32.63-.47,1.03-.71.4-.16.79-.32,1.27-.4.87-.08,1.5,0,2.06.24.48.24.87.63,1.11,1.03l-1.27,1.19c-.16-.32-.4-.63-.71-.79-.35-.16-.73-.24-1.11-.24-.37.08-.73.24-1.03.47-.26.25-.4.59-.4.95,0,.4.16.71.4.87.24.24.55.48.87.71.32.24.63.55.87.87.24.48.4.95.4,1.58h0ZM133.55,170.74l-1.98.24,5.22-10.21,1.98-.24-5.22,10.21ZM144.86,159.74l-.87,6.8h.08l6.33-7.44,3.09-.4-5.14,10.21-1.82.24,3.96-7.75h-.08l-6.88,8.07-1.42.16.95-7.12h-.08l-3.88,7.44-1.82.24,5.14-10.21,2.45-.24ZM160.29,157.68c.63-.08,1.19-.08,1.66.08.48.08.95.32,1.35.63s.63.63.87,1.11c.24.4.32.95.32,1.5,0,.71-.16,1.5-.48,2.29s-.79,1.5-1.35,2.14c-.6.7-1.33,1.29-2.14,1.74-.82.49-1.74.79-2.69.87-.63.08-1.19.08-1.66-.08-.47-.08-.95-.32-1.35-.63-.4-.32-.63-.63-.87-1.11-.24-.48-.32-.95-.32-1.5,0-.71.08-1.5.4-2.29.32-.79.71-1.5,1.35-2.14.59-.68,1.29-1.27,2.06-1.74.95-.47,1.82-.79,2.85-.87h0ZM158.16,166.38c.63-.08,1.19-.24,1.74-.63.55-.32,1.11-.71,1.5-1.19.4-.48.79-1.03,1.03-1.58s.4-1.19.4-1.74c0-.71-.32-1.19-.79-1.58-.55-.4-1.19-.48-1.98-.4-.63.08-1.27.32-1.82.63-.55.32-1.11.71-1.5,1.19s-.79,1.03-1.03,1.58c-.24.55-.4,1.19-.32,1.74,0,.71.32,1.19.79,1.58.55.32,1.19.48,1.98.4h0ZM163.46,154.44l-2.14,2.61-1.19.16,1.35-2.53,1.98-.24ZM172,165.99l-1.66-6.49-3.64,7.12-1.9.24,5.14-10.21,1.35-.16,1.66,6.49,3.72-7.2,1.9-.24-5.14,10.21-1.42.24ZM181.5,164.88l5.22-10.21,1.98-.24c.79-.08,1.42,0,1.9.4.47.32.71.79.71,1.42,0,.4-.08.87-.4,1.35-.27.55-.72.99-1.27,1.27.32.16.55.32.71.55.16.24.24.55.32.87,0,.4-.08.79-.24,1.19-.18.43-.42.83-.71,1.19-.32.4-.79.71-1.35.95-.55.32-1.19.47-1.98.55l-4.91.71ZM188.93,160.61c0-.32-.16-.47-.32-.63-.24-.16-.55-.16-.95-.16l-1.9.24-1.58,3.01,2.45-.32c.4-.08.71-.16,1.03-.32.32-.16.55-.32.71-.48s.32-.4.4-.63c.16-.24.16-.47.16-.71h0ZM188.54,155.86l-.63.08-1.35,2.61,1.19-.16c.32,0,.63-.16.87-.24.24-.16.48-.24.63-.48.16-.16.32-.4.32-.55.08-.24.08-.4.08-.63s-.08-.4-.32-.55c-.16-.08-.4-.16-.79-.08h0ZM199.85,152.86c.63-.08,1.19-.08,1.66.08.47.08.95.32,1.35.63.4.32.63.63.87,1.11.24.4.32.95.32,1.5,0,.71-.16,1.5-.47,2.29-.32.79-.79,1.5-1.35,2.14-.6.7-1.33,1.29-2.14,1.74-.82.49-1.74.79-2.69.87-.63.08-1.19.08-1.66-.08-.48-.08-.95-.32-1.35-.63-.4-.32-.63-.63-.87-1.11-.24-.47-.32-.95-.32-1.5,0-.71.08-1.5.4-2.29.32-.79.71-1.5,1.35-2.14.59-.68,1.29-1.27,2.06-1.74.87-.48,1.82-.79,2.85-.87h0ZM197.71,161.56c.63-.08,1.19-.24,1.74-.63.55-.32,1.11-.71,1.5-1.19s.79-1.03,1.03-1.58c.24-.55.4-1.19.4-1.74,0-.71-.32-1.19-.79-1.58-.55-.4-1.19-.48-1.98-.4-.63.08-1.27.32-1.82.63-.55.32-1.11.71-1.5,1.19s-.79,1.03-1.03,1.58-.4,1.19-.32,1.74c0,.71.32,1.19.79,1.58.48.4,1.19.48,1.98.4h0ZM207.05,160.29l3.48-.4-.79,1.5-5.46.63,5.14-10.21,1.98-.24-4.35,8.7ZM213.93,160.85l-1.98.24,5.22-10.21,1.98-.24-5.22,10.21ZM219.47,149.5h-1.5l1.5-2,2.5-.5-2.5,2.5ZM222.8,157.13l6.01-7.6,2.14-.24-8.47,10.52-1.5.16.24-9.57,1.74-.24-.16,6.96ZM228.65,159.1l-2.14.24,8.46-10.6,1.5-.16-.24,9.57-1.74.24.08-2.29-3.96.47-1.98,2.53ZM234.74,151.43l-2.85,3.56,2.77-.32.08-3.24ZM238.3,157.92l5.22-10.21,2.21-.24c.79-.08,1.5,0,1.98.4.48.32.79.87.79,1.5,0,.32,0,.63-.16,1.03-.08.32-.32.71-.55,1.03s-.63.63-1.03.87c-.4.24-.95.48-1.5.63l1.35,4.04-1.82.24-1.27-3.88-1.19.16-2.21,4.27-1.82.16ZM245.58,148.82l-.87.08-1.5,2.93,1.42-.16c.4-.08.71-.16.95-.24.32-.16.47-.32.71-.48.16-.16.32-.4.4-.63s.16-.48.16-.71-.16-.48-.32-.63-.48-.16-.95-.16h0ZM249.22,158.24v-.79c.08,0,.16,0,.24.08s.16,0,.24,0c.17,0,.32-.09.4-.24.08-.08.16-.24.16-.47v-.32l-.95.08-.08-1.74,1.82-.24.08,2.14c0,.4-.08.79-.32,1.03-.24.24-.55.4-.95.48h-.63ZM258.48,155.47l5.22-10.21,1.98-.24c.79-.08,1.42,0,1.9.4.47.32.71.79.71,1.42,0,.4-.08.87-.39,1.35-.27.55-.72.99-1.27,1.27.32.16.55.32.71.55.16.24.24.55.32.87,0,.4-.08.79-.24,1.19-.18.43-.42.83-.71,1.19-.32.4-.79.71-1.35.95-.55.32-1.19.47-1.98.55l-4.91.71ZM265.91,151.19c0-.32-.16-.47-.32-.63-.24-.16-.55-.16-.95-.16l-1.9.24-1.58,3.01,2.45-.32c.4-.08.71-.16,1.03-.32.32-.16.55-.32.71-.48.16-.24.32-.4.4-.63.16-.24.16-.47.16-.71ZM265.52,146.45l-.63.08-1.35,2.61,1.19-.16c.32,0,.63-.16.87-.24.24-.16.48-.24.63-.48.16-.16.32-.4.32-.55.08-.24.08-.4.08-.63s-.08-.4-.32-.55c-.16-.08-.39-.08-.79-.08h0ZM276.83,143.44c.63-.08,1.19-.08,1.66.08.48.08.95.32,1.35.63.4.32.63.63.87,1.11.24.48.32.95.32,1.5,0,.71-.16,1.5-.48,2.29s-.79,1.5-1.35,2.14c-.6.7-1.33,1.29-2.14,1.74-.82.49-1.74.79-2.69.87-.63.08-1.19.08-1.66-.08-.48-.08-.95-.32-1.35-.63-.4-.32-.63-.63-.87-1.11-.24-.47-.32-.95-.32-1.5,0-.71.08-1.5.39-2.29.32-.79.71-1.5,1.35-2.14.59-.68,1.29-1.27,2.06-1.74.87-.48,1.82-.71,2.85-.87h0ZM274.7,152.14c.63-.08,1.19-.24,1.74-.63.55-.32,1.11-.71,1.5-1.19.4-.48.79-1.03,1.03-1.58s.39-1.19.39-1.74c0-.71-.32-1.19-.79-1.58-.55-.4-1.19-.48-1.98-.4-.63.08-1.27.32-1.82.63-.55.32-1.11.71-1.5,1.19s-.79,1.03-1.03,1.58c-.24.55-.4,1.19-.32,1.74,0,.71.32,1.19.79,1.58.55.32,1.19.48,1.98.4h0ZM290.2,150.4c-.4.48-.87.87-1.35,1.19-.55.32-1.11.48-1.74.55-.47.08-.95.08-1.42-.08-.46-.07-.9-.26-1.27-.55-.39-.24-.63-.63-.87-1.03-.26-.52-.4-1.08-.4-1.66,0-.71.08-1.5.4-2.29.32-.79.71-1.5,1.35-2.14.59-.68,1.29-1.27,2.06-1.74.84-.5,1.79-.8,2.77-.87.71-.08,1.27-.08,1.74.08.47.08.87.32,1.19.48.32.24.55.48.63.79.16.32.24.63.24.87v.47c0,.15-.06.29-.16.4l-1.66.24c0-.08.08-.24.08-.32v-.32c0-.4-.24-.63-.55-.95-.39-.24-.95-.32-1.82-.24-.63.08-1.27.32-1.82.63-.55.32-1.11.71-1.5,1.19-.4.48-.79,1.03-1.03,1.58-.24.55-.39,1.19-.32,1.74,0,.71.24,1.27.79,1.66.48.4,1.03.55,1.74.47.71-.08,1.42-.4,2.06-.95s1.19-1.19,1.74-1.9l-3.17.4-.08-1.42,5.78-.71-2.77,5.38-1.19.16.55-1.11ZM302.39,140.28c.63-.08,1.19-.08,1.66.08.47.08.95.32,1.35.63.39.32.63.63.87,1.11.24.4.32.95.32,1.5,0,.71-.16,1.5-.48,2.29-.32.79-.79,1.5-1.35,2.14-.6.7-1.33,1.29-2.14,1.74-.82.49-1.74.79-2.69.87-.63.08-1.19.08-1.66-.08-.48-.08-.95-.32-1.35-.63-.39-.32-.63-.63-.87-1.11-.24-.48-.32-.95-.32-1.5,0-.71.08-1.5.4-2.29s.71-1.5,1.35-2.14c.59-.68,1.29-1.27,2.06-1.74.95-.4,1.9-.71,2.85-.87h0ZM300.33,148.98c.63-.08,1.19-.24,1.74-.63.55-.32,1.11-.71,1.5-1.19.4-.47.79-1.03,1.03-1.58s.39-1.19.39-1.74c0-.71-.32-1.19-.79-1.58s-1.19-.48-1.98-.4c-.63.08-1.27.32-1.82.63-.55.32-1.11.71-1.5,1.19s-.79,1.03-1.03,1.58c-.24.55-.4,1.19-.32,1.74,0,.71.32,1.19.79,1.58.55.4,1.19.55,1.98.4h0ZM309.27,149.22l-1.98.24,4.43-8.7-2.85.32.79-1.5,7.36-.87-.79,1.5-2.53.32-4.43,8.7ZM314.81,148.58l-2.14.24,8.39-10.6,1.5-.16-.24,9.57-1.74.24.08-2.29-3.96.48-1.9,2.53ZM320.82,140.91l-2.85,3.56,2.77-.32.08-3.24ZM324.94,134.66l-2.14,2.61-1.19.16,1.35-2.53,1.98-.24Z"/>
      <path class="cls-2" d="M287.59,8.62h3.17v.08l-1.11.95c-.08,1.58-.08,3.09-.08,4.43s.08,2.61.16,3.8h-1.27c0-.08,0-.16-.16-.24-.08-.08-.16-.24-.24-.32l-5.38-6.88c0,2.14,0,4.19.08,6.41l1.19.87v.16h-3.17v-.16l1.11-.87c.08-1.9.08-4.27,0-7.2l-1.27-.95v-.08h2.69c.16.24.32.55.63.95.32.4.71.95,1.19,1.5.56.66,1.09,1.35,1.58,2.06.63.79,1.27,1.66,2.06,2.61v-3.24c0-1.03,0-1.98-.08-2.85l-1.27-.95v-.08h.16ZM296.14,9.49l1.03-.71v-.08h-3.64l1.03.71v7.52l-1.11.79v.08h3.8v-.08l-1.11-.79v-7.44ZM306.5,17.09c-1.27.08-2.53.08-3.72,0v-3.64h2.85l.71,1.03h.08v-2.85h-.08l-.71,1.11h-2.93v-3.24c.55-.08,1.19-.08,1.82-.08h1.9l.79,1.03h.08v-1.82h-7.2v.08l1.03.71v7.52l-1.03.79v.16h7.36v-2.06h-.08l-.87,1.27ZM274.93,8.7l1.19.95v6.09c-.71-1.03-1.42-1.82-1.98-2.61-.63-.79-1.19-1.5-1.66-2.06s-.87-1.11-1.19-1.5c-.25-.31-.49-.62-.71-.95h-2.69v.08l1.27.95c.08,2.93.08,5.38,0,7.2l-1.03.87v.16h3.09v-.16l-1.19-.87c-.08-2.14-.08-4.27-.08-6.41l5.38,6.88c.08.08.16.24.24.32.08.08.16.24.16.24h1.27c-.08-1.19-.16-2.45-.16-3.8s0-2.85.08-4.43l1.11-.95v-.08h-3.17v.08h.08ZM235.69,6.25l1.42.87.08,9.97v1.03c0,.32-.08.55-.08.87l-.24.71c-.08.24-.24.4-.4.63-.24.24-.47.48-.79.63-.32.16-.67.24-1.03.24,0,0,.08-.08.08-.16s.08-.08.08-.16v-.24c0-.08,0-.16-.08-.32-.08-.08-.08-.16-.16-.32-.08-.08-.16-.16-.32-.16-.08-.08-.24-.08-.32-.08s-.24,0-.32.08c-.08.08-.24.08-.32.16s-.16.16-.24.32c-.08.08-.08.24-.08.4,0,.24.08.4.16.55.08.16.24.24.4.4l.48.24c.16.08.32.08.55.08.4,0,.71-.08,1.03-.16.32-.16.63-.24.87-.47.32-.24.55-.48.79-.71.24-.32.47-.63.63-.95.16-.32.32-.55.4-.87.16-.24.24-.55.32-.87.08-.32.16-.63.24-1.03s.08-.79.08-1.27V7.2l1.19-.79v-.24h-4.35v.08h-.08ZM250.72,15.11c.16-.55.24-1.19.24-1.9,0-.63-.08-1.19-.24-1.74-.16-.55-.4-.95-.63-1.35-.32-.4-.63-.71-1.03-.87-.4-.24-.87-.32-1.35-.32s-.95.08-1.35.32-.71.55-1.03.95-.48.79-.63,1.34c-.16.57-.24,1.15-.24,1.74,0,.71.08,1.27.24,1.82s.4,1.03.71,1.35c.32.4.63.63,1.03.87.4.16.79.32,1.27.32.4,0,.79-.08,1.19-.24.4-.24.71-.48,1.03-.87.4-.48.55-.87.79-1.43M252.07,10.68c.24.4.39.79.55,1.19.16.4.16.87.16,1.35,0,.65-.14,1.3-.4,1.9-.24.55-.63,1.11-1.03,1.58-.47.48-.95.87-1.58,1.11-.63.32-1.27.4-1.98.4s-1.35-.08-1.98-.4c-.63-.24-1.11-.63-1.58-1.11s-.79-.95-1.11-1.58c-.24-.63-.4-1.27-.4-1.9,0-.71.16-1.35.4-1.98s.63-1.11,1.11-1.58,1.03-.79,1.58-1.11c.63-.24,1.27-.4,2.06-.4.4,0,.79.08,1.19.16.4.08.79.24,1.11.48.4.24.71.48,1.03.79.4.4.63.71.87,1.11M261.56,8.7l1.03.71v3.16h-4.83v-3.17l1.03-.71v-.08h-3.64v.08l1.03.71v7.52l-1.03.79v.08h3.64v-.08l-1.03-.79v-3.56h4.83v3.56l-1.03.79v.08h3.64v-.08l-1.03-.79v-7.52l1.03-.71v-.08h-3.64v.08ZM344.63,6.33c.16.08.32.24.55.4.16.16.32.24.47.4-.3,1.11-.61,2.22-.95,3.32-.28.83-.52,1.68-.71,2.53-.24.71-.4,1.27-.48,1.74-.08.48-.24.79-.24.95l-2.61-8.54.48-.47c.16-.16.32-.24.47-.4v-.08h-4.04v.16l1.03.79c-.32.87-.55,1.74-.79,2.53-.24.79-.48,1.5-.63,2.22-.21.65-.4,1.31-.55,1.98-.15.58-.31,1.16-.48,1.74l-2.37-8.47.95-.79v-.16h-3.88v.16c.16.16.32.24.4.32s.24.16.32.24l.16.16q.08.08.08.16c.16.39.32.95.55,1.66.24.79.47,1.58.79,2.53.32.95.63,1.98,1.03,3.09.32,1.11.71,2.22,1.03,3.48h1.27v-.4c0-.08.08-.16.08-.24s.08-.16.08-.24c.08-.4.24-.87.32-1.35.16-.47.24-.95.4-1.5.16-.55.32-1.03.48-1.58l.47-1.66c.16-.55.32-1.03.48-1.5.16-.55.32-.95.4-1.42l3.01,9.81h1.27c.08-.24.16-.63.32-1.19.16-.55.39-1.35.63-2.22.24-.87.63-1.98.95-3.24.4-1.27.79-2.69,1.27-4.19l.63-.63.32-.32v.08h-3.01l.08.16ZM353.57,13.77l-1.5-3.95-1.42,3.95h2.93ZM356.58,16.85l1.03.95v.08h-4.04v-.08l1.19-.87-.95-2.45h-3.4l-.87,2.45,1.19.87v.08h-3.09v-.08l1.03-.87,3.17-8.47h1.35l3.4,8.39ZM387.12,17.09c-1.35.08-2.61.08-3.72,0v-3.64h2.85l.71,1.03h.08v-2.85h-.08l-.71,1.11h-2.93v-3.24c.55-.08,1.19-.08,1.74-.08h1.98l.71,1.03h.08v-1.82h-7.2v.08l1.03.79v7.52l-1.03.79v.16h7.36v-2.14h-.08l-.79,1.27ZM394.95,13.21c.79,0,1.35-.16,1.82-.55.4-.32.63-.87.63-1.5,0-.24-.08-.48-.16-.71-.08-.24-.24-.4-.4-.55-.18-.18-.4-.31-.63-.4-.28-.1-.57-.15-.87-.16h-1.35v3.8h.79l.16.08ZM399.62,17.64c.08.08.16.16.24.16v.08h-2.06l-2.14-3.64c-.06-.14-.18-.25-.32-.32-.08,0-.24-.08-.48-.08h-1.03v3.16l1.03.71v.08h-3.72v-.08l1.11-.79v-7.44l-1.03-.79v-.08h4.27c.55,0,1.03.08,1.5.16.47.16.87.32,1.11.55.32.24.55.48.71.79.32.62.32,1.36,0,1.98-.16.32-.32.55-.63.71-.24.24-.55.4-.95.48-.4.16-.79.16-1.19.24.32,0,.55.16.79.24.24.16.4.4.55.63l1.42,2.29c.08.08.16.16.24.32.08.08.16.24.24.4.16,0,.24.16.32.24M373.43,12.5c.66-.66,1.35-1.29,2.06-1.9.55-.47.95-.87,1.27-1.11l1.42-.71v-.08h-3.09l.48.71c-.34.32-.65.67-.95,1.03l-.95.95c-.32.32-.63.63-.95.87-.32.24-.55.55-.87.71,1.03,1.11,2.3,2.37,3.64,4.03l-.4.71v.08h3.32v-.08l-.71-.71c-1.98-2.06-3.4-3.48-4.27-4.51M371.77,9.49l1.11-.79v-.08h-3.72v.08l1.03.79v7.52l-1.11.79v.08h3.8v-.08l-1.11-.79v-7.52ZM365.84,17.01h-3.4v-7.51l1.19-.71v-.08h-3.8v.08l1.03.71v7.52l-1.03.79v.08h7.04v-2.06h-.16l-.87,1.18ZM314.49,14.71c-.16-.16-.32-.48-.32-.87,0-.79.47-1.74,1.11-2.3.87-.63,1.66-.71,1.98-.79-.55,0-.79-.32-.79-.55,0-.08.16.08.48.16.39,0,.63-.08,1.11-.4.16-.08.16,0,.16.08.28-.38.47-.81.55-1.27.16.24.55.4.79.4.16.08.87.16,1.03.16-.08,0-.63-.24-.95-.4-.16-.08-.32-.08-.4-.16-.08-.08-.24-.08-.24-.16l-.08-.08-.08-.08c-.24-.24-.71-.95-.95-1.5-.19-.44-.35-.88-.47-1.35v-.63c0-.08.08-.16.08-.16,0-.08.08-.08.08-.08l.16-.16h.08c.08,0-.08.16-.16.47-.08.55.32.95.48,1.11.55.63.95.79,1.27,1.19.08.08,0,.08-.08.08-.16,0-.32-.08-.24,0,.16.16.32.24.48.24h.08c.08,0,.16,0,.24.08,0,0,.08,0,.08.08h.08s.08,0,.08.08h-.79c-.24-.08-.47-.16-.32,0l.08.08c.16.08.24.16.4.24h.16q.08,0,.24-.08h.95c.08,0,0-.08-.08-.16-.08,0-.08-.08-.16-.08-.16-.08-.24-.08-.32-.16l-.08-.08-.08-.08-.08-.08v-.08c0-.08-.08-.16-.08-.16-.24-.4-.39-.79-.71-1.19-.08-.16-.39-.4-.48-.55-.08-.08-.08-.39-.08-.39.16,0,.55.71.63.79,0,0,0-.24-.08-.39,0-.08-.08-.24-.16-.32,0,0-.08-.24-.32-.4-.08-.08-.24-.16-.24-.16-.08,0,0-.08.24.08.16.08.24.08.24.08-.24-.24-.4-.24-.48-.32-.08,0,.24-.16.63-.16.32,0,.55.08.87.16.16,0,0-.08-.08-.16-.16-.16-.47-.16-.47-.24h.47c.16,0,.08-.08-.08-.16-.16-.08-.32-.08-.24-.08,0,0,.16-.08.24-.32.08-.16,0-.24,0-.24,0,0,.24.24.63.71s.71,1.03,1.03,1.58c.47,1.11.55,2.14.55,2.14,0,0,0,.08.08,0,.16-.32.32-1.11.47-1.58,0-.16,0-.32-.08-.47-.16-.16,0-.32,0-.55s-.16-.24-.16-.32l-.55-.08h.32c.24,0,.39.08.47.16.08.08.24.4.48.32.16,0,.32.08.48.16l.16.16c0,.08-.08.16-.08.24s.08.16.08.24c0,0,.08.08.08,0v-.24c0-.16.08-.16.08-.16l.08.08v.08c0,.08.08.08.08.16,0,0,0,.08.08.08.16.16.4.24.48.32q.08,0,0,0-.32-.24-.39-.32s-.08-.08-.08-.16-.08-.08-.08-.16c0,0,.08,0,.08-.08v-.08h-.32c-.16-.08-.24-.08-.24-.16-.08-.08.08,0,.16-.08.08-.08-.08-.24-.16-.16-.08.16-.08,0-.08-.08v-.24l.08-.08h.08l.08.08h.32s.08,0,.08-.08v-.08h-.32v-.07s0-.08-.08-.08c-.08-.08-.16-.16-.32-.16-.08-.08-.24-.16-.32-.16q-.08-.08-.08-.16c0-.08-.08-.16-.08-.24-.08-.08-.08-.16-.08-.16.08-.08.16,0,.24.08l.08.08v-.16c0-.08.08-.24.08-.24v.24c0,.08.08.32.08.32,0,0,0,.08.08.08s.08-.08.08-.08h.16s0-.08.08-.08v-.24c-.08-.08-.08,0-.08,0v-.16c0-.08-.08,0-.08,0v-.08q0-.08-.08-.08h-.08c0-.08.32-.08.32,0q.08,0,.16.08s0,.08.08.08h-.16.16l.08.08c0,.08,0,.16.08.4,0,.08.08.16.08.16q.08.08.08.16v.08q0,.08.08.08h.08s.08,0,.08.08c0,0,0,.08.08.08h.08c.16,0,.16.08.16.24v.08c0,.08.16.32.32.55.32.4.63.95.63,1.11s-.32.32-.4.32c-.16.08-.87.08-1.66,0-.87-.16-1.19-.24-1.27-.24-.08.39-.16.87-.24,1.19-.08.32-.24.79-.32,1.03h-.16c-.08,0-.16-.08-.24-.08-.16-.08-.24-.08-.32-.08h-.55c-.16,0-.24,0-.32.08-.16.08-.16.16.24.16h.79c.08,0,.24,0,.32.08.08,0,.24.08.24.08h.08c.24.08.32.08.48.16h.87v.08l-.08.08s-.08,0-.08.08c0,0-.08,0-.08.08-.08,0-.16.08-.24.16-.16.08-.24.32-.24.55s.24.16.16.32c0,0-.08.16-.16.08-.08,0-.16,0-.24-.08,0-.08.08-.16-.08-.24-.08-.08-.24-.08-.16.08l.08.08q-.24-.08-.32-.16s0-.08-.08-.08v-.08s-.08-.08-.08,0l-.08.08c-.08.08-.16,0-.16,0h-.08s.24.08.4.16c0,.24-.08.63-.16.71s-.32-.4-.4-.55v.08s0,.08-.08.08c-.08.16-.32.32-.32.32h-.48c-.95,0-2.06.63-2.45.79-.08,0-.16.08-.16.08.08,0,.48-.08.79-.16.16-.08.24-.08.63-.24h.08l-.08.08c-.24.24-.32.47-.87.79-.27.18-.56.31-.87.4-.08,0-.08,0-.16.08-1.19.32-1.74.32-2.37.63-.4.24-.55.55-.48.79,0-.08,0-.4.4-.55.39-.32.95-.4,1.11-.4-.55-.32-1.58.4-1.5,1.35M321.14,7.6c-.08,0-.08.08-.08.16s.08.08.16.08.08-.08.08-.16c0,0-.08-.08-.16-.08M320.98,7.12c.08,0,.08-.08.08-.16s-.08-.08-.16-.08-.08.08-.08.16c.08,0,.08.08.16.08M319.71,5.22c0,.08.55.4.95.87.16.16.32.32.32.4,0,0,.16.16,0-.16,0-.08-.16-.24-.4-.55-.32-.32-.55-.47-.55-.55s.16-.24.16-.24c-.08,0-.48.24-.48.24M320.74,3.8l-.08-.08s-.32.16-.16.16c.08,0,.16-.08.24-.08M321.93,5.86c0-.16-.24-.16-.16,0,0,.08.08.16.08.16,0,0,.08,0,.08-.16M319.63,1.5c0,.24.32.32.47.32h.16c0,.08,0,.16-.24.08-.08,0-.24,0-.24.24s.08.4.08.47-.08.08-.08.08h-.08s0,.08.08.16h.4c.08,0,.15.07.16.16.08.08.08.16.08.16.08,0,.08-.08.08-.08,0,0-.08,0-.16-.08,0-.08,0-.16-.08-.24,0-.08-.08-.16-.08-.24s.08-.24.24-.24c.08,0,.08.08.08.16h-.16l.08.08.08.08v.24s.16.16.24.16h.08s-.08-.08-.08-.32q0-.08.08-.16h.24s.08,0,.08.08l.08.08.08.08h.4v.47l-.08.08h-.08l-.08.08v.24c0,.08-.08.08,0,.16q0,.08-.08.16c-.08.08-.16.08-.24,0-.08,0-.08-.08-.16-.08l.08.08.08.08c.24.16.48.16.48,0,0-.08.16-.16.24-.4.16-.24.24-.24.32-.47.08-.08.08-.24.08-.4-.08,0-.16-.08-.32-.16-.08-.08-.16-.16-.16-.24q-.16-.24-.32-.4c-.08-.08-.16-.16-.24-.16,0,0-.08-.08,0-.08h.08c.32.16.55.32.55.4.08.16.16.24.24.32l.24.24c.24.08.55.08.63.08q.16-.08.16-.16l.08.08s.08,0,.08.08h.08v.08h.24l-.08-.16s-.24-.24-.32-.24-.08,0-.08.08v.08c-.08,0-.16-.08-.24-.08q-.24-.08-.32-.16s.24-.4.4-.55l.39-.4c0-.08-.16-.71-.87-1.11-.71-.32-1.19-.32-1.42-.32-.16.08-.24.16-.24.24s0,.32-.08.55c-.08.16-.08.24-.08.32,0,0,0,.08.08.08,0,.08.4.32.4.39.08.08-.08.08-.08,0-.08-.08-.24-.16-.48-.24-.08,0-.32-.16-.63-.16-.08.08-.32.16-.32.32M321.53,4.51c-.08,0-.08-.08-.08-.08-.08,0-.08.08-.16,0-.16-.16-.32-.32-.39-.16v.24c0,.16.08.39.08.39,0,0,0,.08.08,0,.08,0,.16-.08.16-.08,0,0,.08,0,.08.08.08.08.16.08.16,0l.08-.08c.08.08.32.24.24.08,0,0-.08-.24,0-.47,0-.08.08-.08,0-.08h-.16s-.08.08-.08.16M321.93,6.41s.16,0,.16-.16-.16-.08-.16,0v.16ZM316.23,18.67c.16,0,.08,0,.08.08-.14.15-.28.31-.4.47-.16.24-.87,1.11-1.03,1.58-.16.32-.16.48-.16.55h-.24c-.08,0,0,.08.08.08s.08.08.16.08c0,0,.08,0,.08-.08v.08c0,.08,0,.16-.08.16,0,.24,0,.4.08.71.08.32.32.55.32.55,0,0,.32.16.4.32.16.16,0,.32,0,.32,0,0,.08,0,0,.16,0,0-.08.08-.24.08s-.47,0-.87-.16c-.32-.16-.48-.24-.55-.55-.1-.2-.18-.41-.24-.63h-.24l-.16-.32c-.08-.24,0-.48,0-.48,0,0,0-.16.08-.32,0,.08.08.16.16.08.08-.08.08-.16.16-.16q.08-.08.08-.16s-.08-.08-.16,0l.08-.08s.08-.08.08-.16.08-.24.16-.48c.08-.32.24-.87.32-1.19.16-.32.32-.71.47-.87,0-.08,0,0,.08.08,0,.08.08.08.08.08l.08.08c-.08.16-.16.24-.32.55-.08.16-.39.95-.47,1.42-.08.48,0,.24.08,0,.08-.16.24-.71.32-.95s.48-.87.48-.95q.08-.08.16-.08c.08,0,.24.08.4.08.24.08.71,0,.71,0M313.94,22.71c.08-.08.08-.24-.08-.4-.08-.16-.24-.24-.24-.32s0-.24-.08-.16v.16c0,.16.16.32.24.4,0,.16.08.4.16.32M314.57,23.18s-.08-.08-.16-.08-.16.08-.08.16.24.08.32.16c.08,0,.08.08.16.08,0,0-.08,0-.16-.08,0-.16,0-.24-.08-.24M314.33,23.02c.16,0,.24-.08.08-.08,0,0-.16,0-.24.08-.08.08-.08.16,0,.08.08,0,.08-.08.16-.08M323.51,10.05c.08,0,.24,0,.32-.08.08-.08.16-.08.24-.08s.08-.08.08-.16,0-.08.08-.08.08-.08.08-.08v-.08l.08-.08c.08,0,.15-.07.16-.16v-.16s-.08.08-.16,0c-.08-.08-.16-.08-.24-.08h-.08c0,.08.08.08,0,.16,0,0-.08,0-.08.08-.08,0-.08.08-.08.16v.08c-.08,0-.08.08-.08.16s0,.08-.08.08-.08.08-.32.08c-.16,0-.24,0-.32-.08-.08,0-.16,0-.16.08s0,.08.08.08.08.08,0,.08.08.08.16.08c-.32.63-4.11,8.23-4.11,8.31v.08h.08c-.08-.08,4.35-8.39,4.35-8.39M323.75,8.86c0,.08.16-.08.24-.08h.16l.08-.16c.17-.01.3-.15.32-.32-.01-.17-.15-.3-.32-.32-.08,0-.16,0-.24.08h.08s-.08.08-.08.16v.08h-.08v-.08c0,.08-.08.08-.08.16s0,.16.08.16c-.08.08-.16.32-.16.32M327.15,21.52l.08.08c-.08.24-.48.79-.79.95s-.79.24-1.03.32l-.16.08.08.24s-.08.08-.32.24c-.24.08-.32.16-.32.16l-.24-.24s-.24-.16-.32-.4c0-.08-.08-.08-.08-.16v-.08c-.08-.16-.08-.24-.08-.24,0-.08-.08-.08-.08-.16v-.16c.08-.16-.08-.16-.08-.16h-.08c-.08-.08-.08-.16-.08-.16,0-.08-.08-.08-.08-.16l-.08-.08c-.24-.32-.4-.48-.79-1.11-.39-.55-.47-1.03-.47-1.03,0,0,.08-.08.16-.08s.08,0,.16.08v.08c0,.08.08.32.16.48.08.24.16.47.32.63.16.24.55.71.79.95.16.16-.16-.24-.4-.63-.3-.43-.51-.91-.63-1.42,0-.08-.08-.08-.08-.16l-.08-.08s-.08,0-.08-.08c0,0,.08-.08.24-.16.16-.16.24-.4.32-.63.08-.08.08-.16.16-.24,0-.16,0-.4.08-.32,0,0,0,.08.08.16v.08c.08.24.24.95.55,1.74.24.71.55,1.27.63,1.5,0,.08.08.08.08.16h.16c.08,0,.08.08.08.08.08.08.16.08.24.08.4.08.71.16,1.03.08h.08l-.08.08c-.24.16-.48.16-.48.16.16.16.48,0,.55-.08q.08-.08.16,0h.08s0-.16.08-.24c0-.08.08-.16.08-.16.24-.08.4.08.48,0-.08.08-.08,0,0,0M324.38,22.79v-.24s0-.16-.08-.16c-.08-.08-.16,0-.16.08s0,.16.08.24c0,.08.08.08.16.08M325.49,22.79q0-.08,0,0c0-.08-.08,0-.24,0s-.39,0-.48.08-.16.24,0,.16l.32-.16c.16,0,.24-.08.39-.08M322.56,18.83c.24-.16.32-.48.4-.71.08-.32.24-.48.32-.55,0,0,0-.16-.08-.24h-.16c0-.08.08-.16.08-.24s0-.24-.08-.47c0-.08-.08-.16-.08-.16v.16c0,.16,0,.32-.08.4-.08.16-.16.32-.16.4s0,.16.08.16c0,0,.08,0,.08.08s0,.24-.24.55c-.08.08-.24.24-.39.32v.16c0,.08-.08.16-.08.16h-.08c-.16.08,0,.24,0,.24,0,0,.16,0,.48-.24M319.32,14.87c.32-.55.55-.95.79-1.19l.4-.4c.08-.08-.08-.08-.48.16-.16.08-.32.24-.47.48-.32.47-.71,1.19-.79,1.5-.08.24-.32.55-.47.71-.24.24-.48.32-.63.4l-.08.08-.08.08v.16c0,.08,0,.16-.08.24,0,0-.08.08-.24.16h-.16c-.08,0-.16.08-.08.08,0,0,.08,0,.08.08q.08,0,.08.08c0,.08-.08.16-.24.24-.32.08-.87.08-.87.08h-.39s0,.08.16.08c.08,0,.32.08.4.08s.08.08,0,.08-.48,0-.63-.08c0,0-.08,0-.08-.08-.08-.08-.16-.16-.24-.16,0,0,0-.08-.08-.16l-.16.24s0,.08.08.24v-.08s.08-.08.08,0v.24c.08.08.24.16.4.16.47.08.79,0,.87,0h.16v.08q0,.08-.08.08c.08,0,.08-.08.08-.08.08,0,.16-.16.24-.16.08-.08.16-.16.16-.24v-.08c0-.08,0-.16.16-.24.08-.08.24-.08.32-.24.08-.08,0-.24.16-.4.08-.08.24-.16.32-.24l.16-.32.55-.55c.32-.32.4-.63.71-1.11M322.96,9.26c-.08,0-.16.08-.08.08h.24l.16-.08h-.32ZM316.79,12.58c-.32.08-.48.08-.55.08-.55.55-.24,1.03-.08,1.11.16.08,0-.08.55-.71.16-.24.63-.55.71-.55-.08-.08-.32,0-.63.08M324.14,8.86s.24.16.32.16c0,0,.08,0,.08.08.08,0,.08-.08.08-.08,0-.08-.08-.08-.16-.08-.08-.08-.16-.16-.32-.08"/>
      <path class="cls-3" d="M51.19,137.9l-31.81,13.69c.87-12.18,9.65-23.74,26.58-29.91l-1.58-6.65-4.51-10.21-10.76.71c1.98-9.26,7.67-16.69,15.11-20.25l-1.35,9.57,5.54,9.57,10.84.24,1.11-23.02-4.51-10.21-11.95-7.28c-20.02,3.24-33.86,23.34-31.96,41.06.08.71.16,1.5.32,2.21l5.3,8.54c-10.05,8.07-15.59,19.7-14.32,31.65.32,2.77.48,6.01,1.5,8.78l5.46,9.41,14.16,5.62,35.05-12.42-3.72-11-4.51-10.13Z"/>
      <path class="cls-3" d="M334.98,60.68l-17.25,6.57c0-.08-2.61-5.22-2.61-5.22l-11.15-4.27c-1.19,2.22-2.22,4.51-3.32,7.04l-7.36-5.46c-6.57,2.93-10.68,8.94-14,15.74-3.64,7.52-7.44,13.85-11.47,19.15,1.9-4.67,2.53-9.89,2.06-14.79l-4.43-9.97-11.47-6.41c-9.57,1.58-15.11,7.12-19.3,14l-15.11,24.37,1.27-14.64-4.43-10.13-10.13-9.49-29.99-1.5-.63,12.26,5.46,9.49h2.14c-4.98,23.26-17.96,33.86-34.81,36.63-.16-.95-.32-1.98-.48-3.01-.16-1.55-.24-3.11-.24-4.67l6.17,3.64c14.16-4.27,19.62-17.56,18.51-30.22l-4.43-10.13-8.62-4.59c6.17-3.16,12.1-6.72,16.85-10.28l-4.43-10.05-6.96-8.94c-5.14,4.51-24.21,17.72-24.21,17.72l3.32,6.65,3.8,6.33c-3.4,1.98-6.09,4.67-8.54,7.83l-25.24,32.12,1.9-22c5.5-.85,11.01-1.62,16.54-2.29l.32-11.39-4.43-10.05c-4.51.71-9.34,1.66-13.53,2.45l.32-3.96-1.9-5.14-11.63-2.61-.79,14.56c-9.02,1.98-17.72,4.35-26.66,7.04l-7.83,13.45c2.29,9.02,8.86,22.47,10.76,31.09-1.42.95-3.32,2.06-5.3,3.09l.32-4.04-4.43-10.05-10.13.16-.63,20.65,5.62,9.49,13.77,3.64c9.81-3.48,16.38-9.49,15.74-15.51-.79-7.2-8.7-21.6-10.92-32.2,3.64-1.74,10.13-3.64,18.59-5.46l-1.9,36.24,4.98,9.81,11.79,3.16,19.94-27.29,3.4,7.44,5.46,9.41,13.85,5.7c27.06-5.38,37.26-24.68,39.8-48.02l-3.8-6.65,11.63-.08-2.37,35.68,5.54,9.49,11.79,3.16,13.37-23.26,1.58,4.19,5.46,9.49,13.84,5.7c8.55-4.35,17.33-11.39,25.24-23.02l1.03,3.01,5.46,9.5,13.77,5.7c16.3-4.83,23.66-21.76,23.42-38.45,6.01-2.37,12.66-5.46,20.41-9.73l-4.27-9.73-4.04-8.15ZM245.74,110.76c-.16-1.74-.32-3.48-.16-5.3l6.8,3.88c-2.06,1.42-4.11,2.61-6.25,3.72-.24-.71-.32-1.5-.4-2.29M306.34,94.39c-2.53,7.04-7.36,12.11-14.56,14.48-.16-.79-.32-1.66-.4-2.53-.95-8.78,1.35-18.43,6.09-24.37l8.86,12.42Z"/>
      <path class="cls-5" d="M19.38,161.64l34.97-12.42-3.72-11-34.81,14.87c-.69-2-1.17-4.07-1.42-6.17-1.5-13.93,7.2-28.01,26.5-35.05l-1.58-6.65-15.98.47c-1.03-16.3,8.86-29.83,21.92-32.12l-1.74,21.12,10.84.24,1.11-23.02-11.47-7.68c-20.02,3.24-33.39,23.18-31.49,40.9.08.71.16,1.5.32,2.21l10.36,4.99c-13.53,7.75-21.36,21.28-19.86,35.37.32,2.77.95,5.62,1.98,8.39l14.08,5.54Z"/>
      <path class="cls-2" d="M19.38,161.64l34.97-12.42-3.72-11-34.81,14.87c-.69-2-1.17-4.07-1.42-6.17-1.5-13.93,7.2-28.01,26.5-35.05l-1.58-6.65-15.98.47c-1.03-16.3,8.86-29.83,21.92-32.12l-1.74,21.12,10.84.24,1.11-23.02-11.47-7.68c-20.02,3.24-33.39,23.18-31.49,40.9.08.71.16,1.5.32,2.21l10.36,4.99c-13.53,7.75-21.36,21.28-19.86,35.37.32,2.77.95,5.62,1.98,8.39l14.08,5.54Z"/>
      <path class="cls-5" d="M144.63,69.86c9.41-4.19,19.46-9.49,26.66-14.95l-6.41-9.1c-6.73,5.85-15.11,12.26-23.66,17.8l3.4,6.25Z"/>
      <path class="cls-2" d="M144.63,69.86c9.41-4.19,19.46-9.49,26.66-14.95l-6.41-9.1c-6.73,5.85-15.11,12.26-23.66,17.8l3.4,6.25Z"/>
      <path class="cls-5" d="M334.98,60.68l-18.2,6.96c-.47-1.9-.95-3.8-1.66-5.62l-11.16-4.27c-1.19,2.22-2.21,4.51-3.32,7.04l-7.36-5.46c-6.57,2.93-10.68,8.94-14,15.74-10.05,20.57-20.89,32.12-34.42,38.69-2.29-3.8-3.56-8.23-4.04-12.82-.16-1.74-.32-3.48-.16-5.3l6.17,3.48c14.08-4.51,19.38-17.64,18.12-29.43l-11-6.65c-9.57,1.58-15.11,7.12-19.3,14l-21.84,35.13,2.93-35.29-9.49-9.73-29.99-1.5-.16,11.87,8.7-.08c-3.16,30.7-17.64,43.75-37.11,46.68-2.61-3.56-4.11-8.15-4.67-12.97-.16-1.55-.24-3.11-.24-4.67l6.17,3.64c14.16-4.27,19.62-17.56,18.51-30.22l-10.84-6.57c-8.15,1.35-13.13,5.54-17.33,10.92l-31.88,40.43,3.4-40.11c5.5-.85,11.01-1.62,16.53-2.29l.32-11.39c-5.62.87-10.84,1.82-15.9,2.85l.79-9.42-11-2.85-.79,14.56c-9.02,1.98-17.72,4.35-26.66,7.04l-7.83,13.45c2.29,9.02,8.86,22.47,10.76,31.09-2.77,1.9-7.12,4.11-11.24,5.7l1.27-16.46h-9.49v20.33l13.77,3.64c9.81-3.48,16.38-9.49,15.75-15.51-.79-7.2-8.7-21.6-10.92-32.2,4.43-2.14,12.97-4.43,24.13-6.57l-2.45,47.23,11.79,3.16,22.79-31.25c-.08,1.9,0,3.72.24,5.54.63,5.78,2.53,11.24,5.7,15.27l13.85,5.7c27.06-5.38,37.26-24.68,39.8-48.02l-4.83-6.65,18.2-.16-2.37,45.25,11.79,3.17,15.35-26.66.16,2.06c.63,5.62,2.29,10.84,4.99,15.03l13.85,5.7c9.1-4.59,18.59-12.42,26.9-25.56l.08.55c.55,5.14,2.14,10.21,4.83,14.4l13.77,5.7c16.3-4.83,23.66-21.76,23.42-38.45,6.01-2.37,12.66-5.46,20.41-9.73l-3.56-8.15ZM255.39,71.21c.4,12.82-5.62,19.86-14.79,23.26.71-11.15,5.93-21.68,14.79-23.26M158.08,81.57c.48,13.61-5.93,20.49-15.19,23.81.55-11.31,6.17-22.23,15.19-23.81M290.6,109.18c-2.3-3.72-3.64-8.07-4.11-12.74-1.35-12.58,3.88-26.74,13.37-29.67-1.66,3.88-3.16,7.99-4.59,11.87l6.25,5.93,7.12-2.45c-.55,13.93-6.41,23.81-18.04,27.06"/>
      <path class="cls-2" d="M334.98,60.68l-18.2,6.96c-.47-1.9-.95-3.8-1.66-5.62l-11.16-4.27c-1.19,2.22-2.21,4.51-3.32,7.04l-7.36-5.46c-6.57,2.93-10.68,8.94-14,15.74-10.05,20.57-20.89,32.12-34.42,38.69-2.29-3.8-3.56-8.23-4.04-12.82-.16-1.74-.32-3.48-.16-5.3l6.17,3.48c14.08-4.51,19.38-17.64,18.12-29.43l-11-6.65c-9.57,1.58-15.11,7.12-19.3,14l-21.84,35.13,2.93-35.29-9.49-9.73-29.99-1.5-.16,11.87,8.7-.08c-3.16,30.7-17.64,43.75-37.11,46.68-2.61-3.56-4.11-8.15-4.67-12.97-.16-1.55-.24-3.11-.24-4.67l6.17,3.64c14.16-4.27,19.62-17.56,18.51-30.22l-10.84-6.57c-8.15,1.35-13.13,5.54-17.33,10.92l-31.88,40.43,3.4-40.11c5.5-.85,11.01-1.62,16.53-2.29l.32-11.39c-5.62.87-10.84,1.82-15.9,2.85l.79-9.42-11-2.85-.79,14.56c-9.02,1.98-17.72,4.35-26.66,7.04l-7.83,13.45c2.29,9.02,8.86,22.47,10.76,31.09-2.77,1.9-7.12,4.11-11.24,5.7l1.27-16.46h-9.49v20.33l13.77,3.64c9.81-3.48,16.38-9.49,15.75-15.51-.79-7.2-8.7-21.6-10.92-32.2,4.43-2.14,12.97-4.43,24.13-6.57l-2.45,47.23,11.79,3.16,22.79-31.25c-.08,1.9,0,3.72.24,5.54.63,5.78,2.53,11.24,5.7,15.27l13.85,5.7c27.06-5.38,37.26-24.68,39.8-48.02l-4.83-6.65,18.2-.16-2.37,45.25,11.79,3.17,15.35-26.66.16,2.06c.63,5.62,2.29,10.84,4.99,15.03l13.85,5.7c9.1-4.59,18.59-12.42,26.9-25.56l.08.55c.55,5.14,2.14,10.21,4.83,14.4l13.77,5.7c16.3-4.83,23.66-21.76,23.42-38.45,6.01-2.37,12.66-5.46,20.41-9.73l-3.56-8.15ZM255.39,71.21c.4,12.82-5.62,19.86-14.79,23.26.71-11.15,5.93-21.68,14.79-23.26M158.08,81.57c.48,13.61-5.93,20.49-15.19,23.81.55-11.31,6.17-22.23,15.19-23.81M290.6,109.18c-2.3-3.72-3.64-8.07-4.11-12.74-1.35-12.58,3.88-26.74,13.37-29.67-1.66,3.88-3.16,7.99-4.59,11.87l6.25,5.93,7.12-2.45c-.55,13.93-6.41,23.81-18.04,27.06"/>
      <path class="cls-3" d="M396.3,75.71l-12.58-8.39c-13.53-1.19-31.49,1.98-45.1,6.57l-.24,12.42,5.54,9.65c2.6-1.1,5.24-2.11,7.91-3.01l-3.64,62.74,5.54,9.49,11.31,3.16.71-33.7,5.93,3.8c12.66-4.43,31.65-18.75,29.04-52.61l-4.43-10.13ZM385.3,86.32c-.71,12.74-6.65,25.56-19.23,32.28l.48-23.1-3.72-5.86c7.37-1.81,14.89-2.93,22.47-3.32"/>
      <path class="cls-3" d="M628.51,93.75l-6.09-4.75c-2.06,2.45-4.19,4.75-6.33,7.04l1.34-16.53-4.43-10.05-10.76-5.93c-8.31,1.42-14.24,5.93-18.04,12.11l-17.8,28.8.71-25.32-4.35-9.97-11.55-.16-17.8,33.55.63-16.38-4.43-10.05-14.32-3.32-13.92,29.59,1.19-16.38-4.43-10.13h-11.79c-5.38,13.85-10.6,24.6-16.3,32.91l1.19-13.77-4.43-10.13-10.68-5.78c-8.23,1.42-14.24,5.93-18.04,12.11l-17.8,28.8.71-25.32-4.43-10.13-11.47-.08-.16,54.28,5.46,9.57,11.79,3.16,12.98-22.87,1.42,3.88,5.46,9.49,13.85,5.7c10.29-5.22,20.89-14.24,29.67-30.62l-.79,14.87,5.54,9.65,9.81,2.53,17.8-36-.55,16.69,5.46,9.49,11.87,3.09,16.53-32.68-.32,18.59,5.46,9.49,11.79,3.16,12.98-22.86,1.42,3.88,5.46,9.57,14.08,5.54c8.54-4.9,21.12-15.67,30.85-28.32l-4.43-10.05ZM593.93,111.71c-1.03-9.97,1.9-20.81,7.67-26.42l-.32,4.27,4.98,9.81,6.49-.08c-5.78,5.62-11.95,10.44-18.51,14.16-.16-.55-.24-1.11-.32-1.74M448.04,129.12l-.24-1.9c-1.03-9.97,1.82-20.73,7.6-26.35l-.16,2.37,4.98,9.81,6.8-.08c-5.7,7.28-11.79,12.42-18.99,16.14"/>
      <path class="cls-3" d="M556.51,66.14l10.6,1.19,1.5-20.57-4.43-10.13-12.82,2.45-.4,17.56,5.54,9.49Z"/>
      <path class="cls-3" d="M410.38,81.65l10.6,1.26,1.5-20.65-4.43-10.21-12.82,2.53-.24,17.64,5.38,9.42Z"/>
      <path class="cls-5" d="M562.13,57.52l1.58-20.57-12.26,2.14.16,17.25,10.52,1.19ZM495.2,134.26l22.86-46.2-.16,36.39,11.87,3.08,21.36-42.33.24,37.66,11.79,3.17,14.95-26.35.16,2.14c.55,5.46,2.14,10.6,4.83,14.72l13.85,5.7c8.54-4.9,21.12-15.67,30.85-28.32l-5.54-4.98c-8.78,10.36-18.67,19.38-29.51,25.24-2.29-3.72-3.48-7.91-3.96-12.34-1.34-12.97,3.96-27.37,13.69-29.99l-1.42,17.72,9.49-.08,1.58-19.86-10.21-6.09c-8.31,1.42-14.24,5.93-18.04,12.1l-23.34,37.74,1.27-44.07-10.92-.32-23.66,44.54,1.5-37.11-13.45-3.64-20.73,44.15,3.01-40.74-11.23-.32c-11.79,30.46-23.02,45.89-39.64,53.96-2.3-3.72-3.48-7.91-3.96-12.34-1.35-12.97,3.96-27.37,13.69-29.99l-1.27,15.82,9.49-.08,1.5-17.96-10.21-6.09c-8.23,1.42-14.24,5.93-18.04,12.1l-23.34,37.74,1.27-44.07-10.92-.32.32,54.04,11.79,3.16,14.95-26.35.16,2.14c.55,5.46,2.14,10.6,4.83,14.71l13.85,5.7c12.5-6.33,25.32-18.2,35.05-41.93l-.55,35.84,9.89,2.29ZM416,73.03l1.58-20.57-12.34,2.14.16,17.25,10.6,1.19ZM360.85,120.89l.71-35.29-6.64-5.06c9.71-2.62,19.7-4.05,29.75-4.27l.39,2.45c1.82,16.61-5.22,35.52-24.21,42.17M360.14,158.55l.71-33.7,5.93,3.8c12.66-4.43,31.65-18.75,29.04-52.61l-12.11-8.7c-13.53-1.19-31.49,1.98-45.1,6.57l.4,12.18c4.43-1.9,8.94-3.48,13.53-4.83l-3.72,74.05,11.31,3.24Z"/>
      <path class="cls-2" d="M562.13,57.52l1.58-20.57-12.26,2.14.16,17.25,10.52,1.19ZM495.2,134.26l22.86-46.2-.16,36.39,11.87,3.08,21.36-42.33.24,37.66,11.79,3.17,14.95-26.35.16,2.14c.55,5.46,2.14,10.6,4.83,14.72l13.85,5.7c8.54-4.9,21.12-15.67,30.85-28.32l-5.54-4.98c-8.78,10.36-18.67,19.38-29.51,25.24-2.29-3.72-3.48-7.91-3.96-12.34-1.34-12.97,3.96-27.37,13.69-29.99l-1.42,17.72,9.49-.08,1.58-19.86-10.21-6.09c-8.31,1.42-14.24,5.93-18.04,12.1l-23.34,37.74,1.27-44.07-10.92-.32-23.66,44.54,1.5-37.11-13.45-3.64-20.73,44.15,3.01-40.74-11.23-.32c-11.79,30.46-23.02,45.89-39.64,53.96-2.3-3.72-3.48-7.91-3.96-12.34-1.35-12.97,3.96-27.37,13.69-29.99l-1.27,15.82,9.49-.08,1.5-17.96-10.21-6.09c-8.23,1.42-14.24,5.93-18.04,12.1l-23.34,37.74,1.27-44.07-10.92-.32.32,54.04,11.79,3.16,14.95-26.35.16,2.14c.55,5.46,2.14,10.6,4.83,14.71l13.85,5.7c12.5-6.33,25.32-18.2,35.05-41.93l-.55,35.84,9.89,2.29ZM416,73.03l1.58-20.57-12.34,2.14.16,17.25,10.6,1.19ZM360.85,120.89l.71-35.29-6.64-5.06c9.71-2.62,19.7-4.05,29.75-4.27l.39,2.45c1.82,16.61-5.22,35.52-24.21,42.17M360.14,158.55l.71-33.7,5.93,3.8c12.66-4.43,31.65-18.75,29.04-52.61l-12.11-8.7c-13.53-1.19-31.49,1.98-45.1,6.57l.4,12.18c4.43-1.9,8.94-3.48,13.53-4.83l-3.72,74.05,11.31,3.24Z"/>
      <path class="cls-2" d="M18.99,55.54c0,10.44-8.47,18.99-18.99,18.99,10.44,0,18.99,8.47,18.99,18.99,0-10.44,8.47-18.99,18.99-18.99-10.52,0-18.99-8.54-18.99-18.99M611.73,54.99c0,7.2-5.78,12.97-12.97,12.97,7.2,0,12.97,5.78,12.97,12.97,0-7.2,5.78-12.97,12.98-12.97-7.12-.08-12.98-5.85-12.98-12.97"/>
      <path class="cls-1" d="M380.4,178.73l-7.12.87.79-1.5c1.27-.87,2.37-1.58,3.24-2.21.87-.63,1.58-1.27,2.14-1.74.55-.55.95-.95,1.19-1.42.24-.4.32-.79.32-1.19,0-.29-.15-.56-.4-.71-.24-.16-.55-.24-1.03-.16-.63.08-1.11.4-1.5.95-.4.55-.63,1.27-.63,2.14h-1.74c.08-.55.16-1.11.4-1.58.24-.55.47-1.03.79-1.42.32-.4.71-.79,1.19-1.03.47-.32.95-.48,1.5-.55s.95-.08,1.35,0,.71.24.95.4c.24.16.48.47.55.71.16.32.24.55.24.95,0,.95-.48,1.98-1.5,3.01-1.03,1.11-2.53,2.21-4.43,3.56l4.35-.55-.63,1.5ZM385.93,168.44l7.36-.87c-.79.79-1.58,1.58-2.29,2.45l-2.14,2.61c-.63.87-1.27,1.74-1.82,2.69-.55.95-1.11,1.9-1.5,2.85l-2.14.24c1.03-1.98,2.14-3.64,3.16-5.06,1.01-1.39,2.18-2.67,3.48-3.8v-.08l-4.9.63.79-1.66ZM390.21,179.2v-.79c.08,0,.16,0,.24.08h.32c.17,0,.32-.09.4-.24.08-.08.16-.24.16-.48v-.32l-.95.08-.08-1.74,1.9-.24.08,2.14c0,.4-.08.79-.32,1.03-.24.24-.55.4-.95.48h-.39c-.16.08-.32,0-.4,0h0ZM406.82,175.48l-7.12.87.79-1.5c1.27-.87,2.37-1.58,3.24-2.21.87-.63,1.58-1.27,2.14-1.74.55-.55.95-.95,1.19-1.43.24-.4.32-.79.32-1.19,0-.29-.15-.56-.4-.71-.24-.16-.55-.24-1.03-.16-.63.08-1.11.4-1.5.95s-.63,1.27-.63,2.14h-1.74c.08-.55.16-1.11.4-1.58.24-.48.47-1.03.79-1.43.32-.4.71-.79,1.19-1.03.48-.32.95-.48,1.5-.55.55-.08.95-.08,1.35,0,.39.08.71.24.95.4.24.16.48.47.55.71.08.24.24.55.24.95,0,.95-.47,1.98-1.5,3.01-1.03,1.11-2.53,2.21-4.43,3.56l4.35-.55-.63,1.5ZM416.55,164.49c.48-.08.95-.08,1.27,0,.4.08.63.16.87.32.24.16.4.32.55.55.08.24.16.48.16.71,0,.4-.08.71-.16,1.03-.16.32-.32.63-.47.87-.24.24-.48.48-.71.63-.32.16-.55.32-.87.48v.08c.24.08.48.24.71.48.24.24.32.63.32,1.03,0,.55-.08,1.11-.4,1.58-.24.47-.63.87-1.11,1.26-.48.4-.95.63-1.5.87-.53.23-1.09.39-1.66.47-1.03.16-1.82,0-2.45-.4-.63-.4-.95-.95-.95-1.74,0-.4.08-.79.24-1.11.16-.4.4-.71.71-1.03.33-.33.71-.62,1.11-.87.48-.24.95-.48,1.5-.55-.16-.08-.32-.24-.48-.48-.16-.24-.24-.47-.24-.87s.08-.71.24-1.11c.16-.4.4-.71.79-1.03.32-.32.71-.55,1.11-.79.48-.24.95-.32,1.42-.4h0ZM413.7,173.35c.32,0,.63-.16.95-.24.32-.16.63-.32.87-.48.24-.24.47-.4.63-.71.16-.24.24-.55.24-.87s-.16-.55-.48-.71c-.32-.16-.71-.24-1.19-.16-.32,0-.63.16-.95.24-.32.16-.63.32-.87.48-.24.24-.48.47-.63.71-.15.24-.23.51-.24.79,0,.4.16.63.47.79.24.16.63.24,1.19.16ZM415.84,168.36c.24,0,.48-.08.71-.16.24-.08.48-.24.63-.4s.32-.32.48-.55c.08-.24.16-.4.16-.63s-.16-.4-.32-.55c-.24-.16-.48-.16-.79-.16-.24,0-.48.08-.71.24-.24.08-.45.22-.63.4-.18.17-.34.35-.48.55-.08.24-.16.4-.16.63s.16.48.39.55c.08.08.4.08.71.08ZM420.27,175.56v-.79c.08,0,.16,0,.24.08h.32c.17,0,.32-.09.39-.24.08-.08.16-.24.16-.48v-.32l-.95.08-.08-1.74,1.9-.24.08,2.14c0,.4-.08.79-.32,1.03-.24.24-.55.4-.95.48h-.79ZM436.96,171.84l-7.12.87.79-1.5c1.27-.87,2.37-1.58,3.24-2.21s1.58-1.27,2.14-1.74c.55-.55.95-.95,1.19-1.42.24-.4.32-.79.32-1.19,0-.29-.15-.56-.39-.71-.24-.16-.55-.24-1.03-.16-.63.08-1.11.4-1.5.95-.4.55-.63,1.27-.63,2.14h-1.74c.08-.55.16-1.11.39-1.58.16-.55.48-1.03.79-1.42s.71-.79,1.19-1.03c.48-.32.95-.48,1.5-.55s.95-.08,1.35,0c.4.08.71.24.95.4.25.18.44.43.55.71.16.32.24.55.24.95,0,.95-.48,1.98-1.5,3.01-1.03,1.11-2.53,2.22-4.43,3.56l4.35-.55-.63,1.5ZM446.22,160.85c.95-.08,1.74,0,2.3.4.55.4.79,1.11.87,2.14,0,.63-.08,1.35-.32,2.22-.24.87-.63,1.66-1.11,2.45-.48.79-1.19,1.5-1.9,2.14-.79.63-1.66.95-2.77,1.11-.79.08-1.42,0-2.06-.16-.55-.24-1.03-.55-1.35-1.11l1.42-1.19c.16.4.4.63.71.87.32.16.71.24,1.19.16.32,0,.63-.16.95-.32.36-.18.7-.39,1.03-.63.32-.24.63-.63.95-1.03.32-.4.55-.87.79-1.42h-.08c-.24.32-.55.55-1.03.71-.4.16-.79.32-1.19.32-.79.08-1.42-.08-1.82-.48-.48-.4-.71-.95-.71-1.58,0-.47.08-.95.32-1.42.24-.55.47-1.03.87-1.42.39-.47.79-.79,1.27-1.11.5-.33,1.07-.54,1.66-.63h0ZM447.57,163.3c0-.29-.15-.56-.39-.71-.26-.17-.57-.23-.87-.16-.32,0-.63.16-.87.32-.32.16-.55.4-.79.63-.24.24-.4.55-.55.87s-.16.63-.16.95.16.55.32.71c.24.16.48.24.87.16.32,0,.63-.16.95-.32s.55-.4.79-.63.4-.55.55-.87c.16-.4.16-.63.16-.95h0ZM457.93,169.23l-1.98.24,2.45-4.75-.24-5.14,1.74-.24.16,3.72,3.96-4.19,2.45-.32-6.41,6.57-2.14,4.11ZM472.57,167.73c-.52.08-1.06.08-1.58,0-.47-.08-.87-.24-1.19-.48-.3-.22-.57-.49-.79-.79-.16-.32-.24-.71-.32-1.11l1.66-.63c.08.55.32.95.63,1.27.4.24.79.32,1.35.24.24,0,.55-.08.79-.24.24-.08.48-.24.71-.47.24-.16.4-.4.48-.71.16-.24.16-.55.16-.87,0-.16-.08-.32-.16-.47-.08-.16-.24-.32-.4-.48-.16-.16-.39-.24-.71-.32s-.63-.08-1.03,0l3.64-3.72-4.35.55.95-1.58,7.36-.87-4.83,4.75c.24.08.55.32.79.63s.4.79.4,1.27c0,.55-.08,1.11-.24,1.5-.16.48-.47.87-.79,1.19-.32.32-.79.63-1.27.87-.16.24-.71.4-1.27.48ZM482.38,166.46c-1.03.16-1.82,0-2.22-.48-.47-.47-.63-1.11-.71-1.98,0-.63.16-1.42.48-2.29.33-.92.82-1.77,1.42-2.53.63-.79,1.35-1.5,2.14-2.14.87-.63,1.74-.95,2.69-1.11.87-.08,1.5.08,2.06.48.48.4.79,1.03.79,1.82,0,.71-.16,1.5-.48,2.45-.32.95-.79,1.74-1.42,2.61-.63.79-1.35,1.51-2.14,2.14-.79.63-1.74.95-2.61,1.03ZM482.54,164.96c.48-.08.95-.32,1.5-.79.56-.47,1.06-1,1.5-1.58.48-.63.87-1.27,1.11-1.98.27-.6.4-1.24.4-1.9,0-.4-.16-.71-.4-.87-.24-.16-.55-.24-.95-.24-.48.08-.95.32-1.5.71-.56.47-1.06,1-1.5,1.58-.47.63-.87,1.27-1.11,1.98-.32.71-.48,1.35-.4,1.9,0,.48.16.79.4.95.32.16.63.24.95.24h0ZM498.91,154.6l2.53-.32c.63-.08,1.19-.08,1.74.08.55.08.95.32,1.35.55.39.24.71.63.95,1.03.24.4.32.87.4,1.42,0,.63-.08,1.35-.4,2.14-.24.79-.71,1.42-1.27,2.14-.55.63-1.27,1.19-2.14,1.74-.87.48-1.9.79-3.01.95l-5.3.63,5.14-10.36ZM501.21,155.78l-1.11.16-3.64,7.2,2.85-.32c.63-.08,1.27-.32,1.9-.63.63-.32,1.11-.71,1.58-1.19s.79-1.03,1.03-1.58.39-1.19.32-1.74c0-.63-.32-1.19-.87-1.5-.55-.4-1.27-.48-2.06-.4h0ZM508.96,161.56l3.4-.4-.79,1.5-5.38.63,5.22-10.29,5.38-.63-.79,1.58-3.32.4-1.42,2.77,3.09-.4-.79,1.5-3.09.4-1.5,2.93ZM527,151.19l-.87,6.8h.08l6.41-7.52,3.09-.4-5.22,10.29-1.9.24,4.03-7.75h-.08l-6.96,8.15-1.42.16.95-7.2h-.08l-3.88,7.52-1.9.24,5.22-10.29,2.53-.24ZM535.23,159.82l-2.14.24,8.47-10.68,1.5-.16-.24,9.65-1.74.24.08-2.29-3.96.47-1.98,2.53ZM541.32,152.14l-2.85,3.64,2.77-.32.08-3.32ZM544.96,158.63l5.22-10.29,2.29-.24c.79-.08,1.5,0,1.98.4.47.32.79.87.79,1.5,0,.32,0,.63-.16,1.03-.08.4-.32.71-.55,1.03-.24.32-.63.63-1.03.87-.4.24-.95.48-1.5.63l1.34,4.11-1.82.24-1.27-3.88-1.19.16-2.22,4.27-1.9.16ZM552.24,149.53l-.87.08-1.5,2.93,1.5-.16c.4-.08.71-.16.95-.24.24-.08.47-.32.71-.48.16-.16.32-.4.4-.63s.16-.48.16-.71-.16-.48-.32-.63c-.24-.16-.55-.24-1.03-.16h0ZM554.77,157.44l.79-1.5,7.59-7.52-4.19.48.87-1.66,6.65-.79-.71,1.42-7.67,7.6,5.06-.63-.87,1.66-7.52.95ZM572.89,145.42c.63-.08,1.19-.08,1.66.08.47.08.95.32,1.34.63.4.32.63.63.87,1.11.24.48.32.95.4,1.5,0,.71-.16,1.5-.47,2.29-.32.79-.79,1.5-1.34,2.21-.6.7-1.33,1.29-2.14,1.74-.82.49-1.74.79-2.69.87-.63.08-1.19.08-1.66-.08-.55-.08-.95-.32-1.34-.63-.4-.32-.63-.63-.87-1.11-.24-.48-.32-.95-.4-1.5,0-.71.08-1.5.4-2.29s.71-1.5,1.34-2.21c.6-.7,1.33-1.29,2.14-1.74.84-.5,1.79-.8,2.77-.87ZM570.75,154.12c.63-.08,1.19-.24,1.82-.63.55-.32,1.11-.71,1.5-1.19.47-.48.79-1.03,1.03-1.58s.4-1.19.4-1.74c0-.71-.32-1.19-.79-1.58-.47-.4-1.19-.48-1.98-.4-.63.08-1.27.32-1.82.63-.55.32-1.11.71-1.5,1.19s-.79,1.03-1.03,1.58c-.24.55-.4,1.19-.32,1.74,0,.71.32,1.19.79,1.58.4.4,1.11.55,1.9.4h0ZM589.27,153.25l-7.12.87.79-1.5c1.27-.87,2.37-1.58,3.24-2.21s1.58-1.27,2.14-1.74c.55-.55.95-.95,1.19-1.43.24-.4.32-.79.32-1.19,0-.29-.15-.56-.4-.71-.24-.16-.55-.24-1.03-.16-.63.08-1.11.4-1.5.95-.4.55-.63,1.27-.63,2.14h-1.74c.08-.55.16-1.11.4-1.58.24-.55.47-1.03.79-1.42.32-.4.71-.79,1.19-1.03.47-.32.95-.48,1.5-.55s.95-.08,1.34,0,.71.24.95.4c.24.16.47.47.55.71.16.32.24.55.24.95,0,.95-.47,1.98-1.5,3.01-1.03,1.11-2.53,2.21-4.43,3.56l4.35-.55-.63,1.5ZM595.99,152.62c-1.03.16-1.82,0-2.22-.47-.4-.48-.63-1.11-.71-1.98,0-.63.16-1.42.47-2.29.32-.87.79-1.74,1.42-2.53.63-.79,1.35-1.51,2.14-2.14.87-.63,1.74-.95,2.69-1.11.87-.08,1.5.08,2.06.48.47.4.79,1.03.79,1.82,0,.71-.16,1.5-.47,2.45-.32.95-.79,1.74-1.42,2.61-.63.79-1.35,1.5-2.14,2.14-.79.63-1.74.95-2.61,1.03h0ZM596.15,151.03c.47-.08.95-.32,1.5-.79.56-.47,1.06-1,1.5-1.58.47-.63.87-1.27,1.11-1.98.27-.6.4-1.24.4-1.9,0-.4-.16-.71-.4-.87-.24-.16-.55-.24-.95-.24-.47.08-.95.32-1.5.71-.56.47-1.06,1-1.5,1.58-.47.63-.87,1.26-1.11,1.98-.32.71-.47,1.35-.4,1.9,0,.48.16.79.4.95.32.24.63.32.95.24h0ZM609.84,150.72l-7.12.87.79-1.5c1.27-.87,2.37-1.58,3.24-2.22s1.58-1.26,2.14-1.74c.55-.55.95-.95,1.19-1.42.24-.4.32-.79.32-1.19,0-.29-.15-.56-.4-.71-.24-.16-.55-.24-1.03-.16-.63.08-1.11.4-1.5.95s-.63,1.27-.63,2.14h-1.74c.08-.55.16-1.11.4-1.58.24-.55.47-1.03.79-1.42.32-.4.71-.79,1.19-1.03.47-.32.95-.47,1.5-.55.55-.08.95-.08,1.34,0,.4.08.71.24.95.4.24.16.47.48.55.71.08.24.24.55.24.95,0,.95-.47,1.98-1.5,3.01-1.03,1.11-2.53,2.21-4.43,3.56l4.35-.55-.63,1.5ZM617.75,140.12l5.7-.71-.95,1.58-3.8.48-1.5,2.29c.08-.08.24-.08.4-.16.16,0,.32-.08.47-.08.4-.08.71,0,1.03,0,.32.08.63.16.87.32.24.16.47.4.55.63.15.29.23.62.24.95,0,.55-.08,1.03-.32,1.5-.24.5-.56.95-.95,1.35-.4.4-.87.79-1.42,1.03-.55.32-1.19.47-1.9.55-1.03.16-1.82,0-2.53-.4-.63-.4-1.03-.95-1.11-1.74l1.74-.55c.08.4.24.63.47.87.32.24.71.32,1.34.24l.95-.24c.32-.16.63-.32.87-.55.24-.24.47-.48.63-.71.15-.29.23-.62.24-.95,0-.47-.24-.79-.55-1.03-.4-.16-.87-.24-1.58-.16-.32.08-.71.16-1.11.24-.4.16-.79.24-1.19.4l3.4-5.14Z"/>
    </g>
  </g>
</svg>