<svg xmlns="http://www.w3.org/2000/svg" width="643" height="189" fill="none"><g filter="url(#a)"><path fill="#fff" stroke="#fff" stroke-miterlimit="10" stroke-width=".312" d="m59.281 180.308 5.222-10.206 2.294-.316c.87-.079 1.504 0 2.058.395.553.396.79.871.79 1.583q0 .593-.237 1.187c-.158.395-.395.87-.712 1.186a6.6 6.6 0 0 1-1.345 1.029c-.554.316-1.266.475-2.057.554l-2.057.237-2.057 4.035zm7.2-9.019-.791.079-1.583 3.165 1.424-.158c.396-.079.713-.159 1.03-.317.315-.158.553-.316.711-.554l.475-.712c.079-.237.158-.474.158-.712 0-.316-.158-.474-.395-.633-.238-.158-.554-.237-1.03-.158Zm3.243 7.754-2.136.237 8.386-10.602 1.504-.158-.238 9.573-1.74.238.079-2.295-3.956.475zm6.013-7.596-2.848 3.561 2.769-.317zm3.64 6.409 5.222-10.206 2.215-.238c.791-.079 1.503 0 1.978.396a1.8 1.8 0 0 1 .791 1.503c0 .317 0 .633-.158 1.029-.08.316-.317.712-.554 1.028s-.633.633-1.028.871c-.396.237-.95.474-1.504.632l1.345 4.035-1.82.238-1.265-3.877-1.187.158-2.215 4.273zm7.279-9.02-.87.08-1.504 2.927 1.424-.158q.594-.119.95-.238c.237-.079.474-.316.712-.474.158-.159.316-.396.395-.633.08-.238.159-.475.159-.712 0-.238-.159-.475-.317-.633-.237-.158-.554-.238-.95-.159Zm13.688 6.805c-.238.712-.554 1.265-1.029 1.74-.475.396-1.028.712-1.74.791-.396.079-.792 0-1.108-.079s-.712-.237-.95-.474a1.56 1.56 0 0 1-.712-.713 2.1 2.1 0 0 1-.474-.791c-.87-.079-1.662-.395-2.216-.949-.553-.554-.87-1.345-.949-2.295 0-.712.08-1.503.396-2.294s.712-1.503 1.345-2.136a8.9 8.9 0 0 1 2.057-1.741 6.35 6.35 0 0 1 2.769-.87c.633-.079 1.186-.079 1.661.079.475.079.95.317 1.345.633.396.317.633.633.871 1.108.237.474.316.949.316 1.503 0 .633-.079 1.345-.396 2.057-.237.712-.633 1.345-1.107 1.978-.475.633-1.108 1.187-1.82 1.661-.712.475-1.503.871-2.294 1.108.079.317.316.554.633.712q.475.356 1.186.237c.396-.079.712-.158 1.029-.316q.474-.237.949-.949zm-4.747-1.108c.633-.079 1.186-.237 1.74-.633.554-.316 1.108-.712 1.503-1.187.396-.474.792-1.028 1.029-1.582s.396-1.187.396-1.741c0-.712-.317-1.186-.792-1.582-.553-.396-1.186-.475-1.978-.396-.633.08-1.266.317-1.82.633-.553.317-1.107.712-1.502 1.187-.396.475-.792 1.029-1.03 1.582-.236.554-.395 1.187-.316 1.741 0 .712.317 1.187.792 1.582.553.396 1.266.475 1.978.396Zm11.708.158c-.87.079-1.503 0-2.057-.237-.475-.238-.871-.633-1.029-1.029-.237-.474-.237-.949-.158-1.582.079-.554.237-1.187.554-1.741l2.69-5.221 1.978-.238-3.007 5.776c-.237.475-.395.87-.395 1.266 0 .316 0 .633.158.87s.316.396.633.475c.316.079.633.079.949.079.712-.079 1.345-.317 1.741-.791.475-.475.87-1.029 1.345-1.82l3.323-6.329 1.978-.238-3.323 6.488c-.396.712-.712 1.345-1.108 1.82-.316.474-.712.949-1.108 1.265-.395.317-.87.633-1.345.792-.712.158-1.265.316-1.819.395Zm9.337-2.769 3.402-.396-.791 1.504-5.38.633 5.143-10.207 5.301-.632-.792 1.503-3.323.395-1.424 2.769 3.007-.395-.712 1.503-3.007.396zm18.039-3.56q0 .593-.237 1.187c-.158.395-.396.712-.712 1.028a4 4 0 0 1-1.108.791c-.475.238-.949.317-1.503.396s-.95.079-1.345 0c-.396-.079-.712-.158-1.029-.317-.316-.158-.554-.316-.712-.553s-.395-.396-.474-.633l1.265-1.266c.238.395.554.791.95 1.028q.593.357 1.424.238c.554-.08 1.028-.317 1.345-.633.316-.317.475-.712.396-1.108 0-.396-.159-.633-.396-.87-.237-.238-.554-.475-.87-.712a4.6 4.6 0 0 1-.871-.871q-.356-.474-.474-1.424c0-.395.079-.791.237-1.107.158-.396.396-.712.633-.95.316-.316.633-.474 1.028-.712.396-.158.792-.316 1.266-.395.871-.08 1.504 0 2.057.237.475.237.871.633 1.108 1.028l-1.266 1.187c-.158-.316-.395-.633-.712-.791a2.5 2.5 0 0 0-1.108-.237 2.45 2.45 0 0 0-1.028.474 1.3 1.3 0 0 0-.396.95c0 .395.159.712.396.87.237.237.554.475.87.712.317.238.633.554.871.87.237.475.395.95.395 1.583Zm3.4 2.373-1.977.238 5.221-10.206 1.978-.238zm11.315-10.997-.87 6.804h.079l6.329-7.437 3.086-.396-5.143 10.207-1.819.237 3.955-7.754h-.079l-6.883 8.07-1.424.159.949-7.121h-.079l-3.877 7.437-1.819.237 5.142-10.206zm15.428-2.057c.633-.079 1.186-.079 1.661.079.475.079.949.317 1.345.633s.633.633.87 1.108c.238.395.317.949.317 1.503 0 .712-.158 1.503-.475 2.294s-.791 1.504-1.345 2.136a7.9 7.9 0 0 1-2.136 1.741 6.34 6.34 0 0 1-2.69.87c-.633.079-1.187.079-1.662-.079-.474-.079-.949-.316-1.345-.633-.395-.316-.632-.633-.87-1.107-.237-.475-.316-.95-.316-1.504 0-.712.079-1.503.395-2.294.317-.791.712-1.503 1.345-2.136a8.9 8.9 0 0 1 2.057-1.741c.95-.474 1.82-.791 2.849-.87Zm-2.137 8.703c.633-.079 1.187-.237 1.741-.633.554-.317 1.108-.712 1.503-1.187.396-.475.791-1.028 1.029-1.582s.395-1.187.395-1.741c0-.712-.316-1.187-.791-1.582-.554-.396-1.187-.475-1.978-.396-.633.079-1.266.317-1.819.633-.554.317-1.108.712-1.504 1.187s-.791 1.029-1.028 1.582c-.238.554-.396 1.187-.317 1.741 0 .712.317 1.187.791 1.582.554.317 1.187.475 1.978.396Zm5.301-11.947-2.136 2.611-1.187.158 1.345-2.532zm8.546 11.551-1.662-6.487-3.639 7.12-1.899.238 5.143-10.207 1.345-.158 1.661 6.488 3.719-7.2 1.898-.237-5.142 10.206zm9.493-1.107 5.222-10.207 1.978-.237c.791-.079 1.424 0 1.899.396q.712.474.712 1.424c0 .395-.079.87-.396 1.345a2.8 2.8 0 0 1-1.266 1.266c.317.158.554.316.712.554.159.237.238.553.317.87q0 .593-.237 1.187a4.8 4.8 0 0 1-.712 1.186c-.317.396-.792.712-1.345.95-.554.316-1.187.474-1.978.554zm7.437-4.273c0-.316-.158-.474-.316-.633-.237-.158-.554-.158-.949-.158l-1.899.237-1.583 3.007 2.453-.317c.396-.079.712-.158 1.029-.316q.474-.237.712-.475c.158-.158.316-.395.395-.633.158-.237.158-.474.158-.712Zm-.395-4.747-.633.079-1.345 2.611 1.187-.158c.316 0 .633-.158.87-.237.237-.159.475-.238.633-.475.158-.158.316-.396.316-.554.079-.237.079-.395.079-.633 0-.237-.079-.395-.316-.554-.158-.079-.396-.158-.791-.079Zm11.313-3.006c.633-.079 1.187-.079 1.662.079.474.079.949.316 1.345.633.395.316.633.633.87 1.107.237.396.316.95.316 1.504 0 .712-.158 1.503-.474 2.294-.317.791-.791 1.503-1.345 2.136a7.9 7.9 0 0 1-2.136 1.741 6.35 6.35 0 0 1-2.69.87c-.633.079-1.187.079-1.662-.079-.475-.079-.949-.316-1.345-.633-.395-.316-.633-.633-.87-1.108-.238-.474-.317-.949-.317-1.503 0-.712.079-1.503.396-2.294.316-.791.712-1.503 1.345-2.136a8.9 8.9 0 0 1 2.057-1.741c.87-.475 1.82-.791 2.848-.87Zm-2.136 8.703c.633-.079 1.187-.238 1.741-.633.553-.317 1.107-.712 1.503-1.187s.791-1.029 1.028-1.582c.238-.554.396-1.187.396-1.741 0-.712-.317-1.187-.791-1.582-.554-.396-1.187-.475-1.978-.396-.633.079-1.266.317-1.82.633-.554.317-1.107.712-1.503 1.187s-.791 1.028-1.029 1.582-.395 1.187-.316 1.741c0 .712.316 1.187.791 1.582.475.396 1.187.475 1.978.396Zm9.336-1.266 3.481-.396-.791 1.503-5.46.633 5.143-10.206 1.978-.237zm6.884.554-1.978.237 5.222-10.206 1.978-.238zM224 149.5h-1.5l1.5-2 2.5-.5zm3.328 7.627 6.012-7.595 2.137-.238-8.466 10.523-1.503.158.237-9.573 1.741-.237zm5.853 1.978-2.136.237 8.465-10.601 1.504-.159-.238 9.574-1.74.237.079-2.294-3.956.474zm6.092-7.674-2.848 3.56 2.769-.317zm3.561 6.487 5.222-10.206 2.215-.237c.791-.079 1.503 0 1.978.395.475.317.791.871.791 1.504 0 .316 0 .633-.158 1.028-.079.317-.317.712-.554 1.029s-.633.633-1.028.87c-.396.237-.95.475-1.504.633l1.345 4.035-1.819.237-1.266-3.877-1.187.159-2.215 4.272zm7.279-9.098-.871.079-1.503 2.927 1.424-.158q.594-.118.95-.237c.316-.159.474-.317.712-.475.158-.158.316-.396.395-.633s.159-.475.159-.712-.159-.475-.317-.633-.475-.158-.949-.158Zm3.639 9.415v-.791c.079 0 .158 0 .237.079s.159 0 .238 0a.43.43 0 0 0 .395-.238c.079-.079.158-.237.158-.474v-.317l-.949.079-.079-1.74 1.82-.238.079 2.137c0 .395-.079.791-.317 1.028q-.356.356-.949.475zm9.256-2.769 5.222-10.207 1.977-.237c.792-.079 1.425 0 1.899.396q.712.474.712 1.424c0 .395-.079.87-.395 1.345a2.8 2.8 0 0 1-1.266 1.266c.316.158.554.316.712.554.158.237.237.553.316.87q0 .593-.237 1.187a4.7 4.7 0 0 1-.712 1.186c-.316.396-.791.712-1.345.95-.554.316-1.187.474-1.978.554zm7.437-4.273c0-.316-.158-.474-.317-.633-.237-.158-.553-.158-.949-.158l-1.899.237-1.582 3.007 2.452-.317c.396-.079.712-.158 1.029-.316q.474-.237.712-.475c.158-.237.316-.395.396-.633.158-.237.158-.474.158-.712Zm-.396-4.747-.633.079-1.345 2.611 1.187-.158c.317 0 .633-.158.87-.237.238-.159.475-.238.633-.475.159-.158.317-.396.317-.554.079-.237.079-.395.079-.633 0-.237-.079-.395-.317-.554-.158-.079-.395-.079-.791-.079Zm11.316-3.006c.633-.079 1.186-.079 1.661.079.475.079.949.316 1.345.633.396.316.633.633.87 1.107.238.475.317.95.317 1.504 0 .712-.158 1.503-.475 2.294s-.791 1.503-1.345 2.136a7.9 7.9 0 0 1-2.136 1.741 6.34 6.34 0 0 1-2.69.87c-.633.079-1.187.079-1.661-.079-.475-.079-.95-.316-1.345-.633-.396-.316-.633-.633-.871-1.108-.237-.474-.316-.949-.316-1.503 0-.712.079-1.503.395-2.294.317-.791.712-1.503 1.345-2.136a8.9 8.9 0 0 1 2.057-1.741c.871-.475 1.82-.712 2.849-.87Zm-2.137 8.703c.633-.079 1.187-.238 1.741-.633.554-.317 1.108-.712 1.503-1.187.396-.475.791-1.029 1.029-1.582s.395-1.187.395-1.741c0-.712-.316-1.187-.791-1.582-.554-.396-1.187-.475-1.978-.396-.633.079-1.266.317-1.819.633-.554.317-1.108.712-1.504 1.187s-.791 1.028-1.028 1.582c-.238.554-.396 1.187-.317 1.741 0 .712.317 1.187.792 1.582.553.317 1.186.475 1.977.396Zm15.507-1.741c-.396.475-.87.87-1.345 1.187-.554.316-1.108.475-1.741.554-.474.079-.949.079-1.424-.079a2.6 2.6 0 0 1-1.266-.554c-.395-.238-.633-.633-.87-1.029a3.7 3.7 0 0 1-.396-1.661c0-.712.079-1.503.396-2.295.316-.791.712-1.503 1.345-2.136a8.9 8.9 0 0 1 2.057-1.74 6.34 6.34 0 0 1 2.769-.871c.712-.079 1.266-.079 1.741.079.474.08.87.317 1.186.475.317.238.554.475.633.791.159.317.238.633.238.871v.474a.6.6 0 0 1-.159.396l-1.661.237c0-.079.079-.237.079-.316v-.317c0-.395-.237-.633-.554-.949-.395-.237-.949-.317-1.819-.237-.633.079-1.266.316-1.82.633-.554.316-1.108.712-1.503 1.186-.396.475-.791 1.029-1.029 1.583-.237.553-.395 1.186-.316 1.74 0 .712.237 1.266.791 1.662.475.395 1.028.553 1.74.474.713-.079 1.425-.395 2.058-.949s1.186-1.187 1.74-1.899l-3.165.396-.079-1.424 5.776-.712-2.769 5.38-1.187.158zm12.184-10.127c.633-.079 1.187-.079 1.662.079.474.079.949.317 1.345.633.395.317.633.633.87 1.108.237.395.317.949.317 1.503 0 .712-.159 1.503-.475 2.294-.317.792-.791 1.504-1.345 2.137a7.9 7.9 0 0 1-2.136 1.74 6.35 6.35 0 0 1-2.69.87c-.633.08-1.187.08-1.662-.079-.475-.079-.949-.316-1.345-.633-.395-.316-.633-.633-.87-1.107-.237-.475-.317-.95-.317-1.503 0-.712.08-1.504.396-2.295s.712-1.503 1.345-2.136a8.9 8.9 0 0 1 2.057-1.741c.949-.395 1.899-.712 2.848-.87Zm-2.057 8.703c.633-.079 1.187-.237 1.741-.633.554-.316 1.107-.712 1.503-1.187.396-.474.791-1.028 1.029-1.582s.395-1.187.395-1.741c0-.712-.316-1.186-.791-1.582s-1.187-.475-1.978-.396c-.633.08-1.266.317-1.82.633-.553.317-1.107.712-1.503 1.187s-.791 1.029-1.028 1.583c-.238.553-.396 1.186-.317 1.74 0 .712.317 1.187.791 1.582.554.396 1.187.554 1.978.396Zm8.94.237-1.978.238 4.431-8.703-2.848.316.791-1.503 7.358-.87-.792 1.503-2.531.316zm5.537-.633-2.136.238 8.387-10.602 1.503-.158-.238 9.573-1.74.237.079-2.294-3.956.475zm6.013-7.674-2.848 3.56 2.769-.316zm4.114-6.25-2.136 2.611-1.187.158 1.345-2.532z"/><path fill="#fff" d="M292.122 8.624h3.165v.079l-1.108.95c-.079 1.582-.079 3.085-.079 4.43s.079 2.61.158 3.798h-1.265c0-.08 0-.159-.159-.238-.079-.079-.158-.237-.237-.316l-5.38-6.884c0 2.137 0 4.194.079 6.409l1.187.87v.159h-3.165v-.159l1.108-.87c.079-1.899.079-4.272 0-7.2l-1.266-.95v-.078h2.69c.158.237.316.554.633.95.316.395.712.949 1.187 1.502a28 28 0 0 1 1.582 2.057c.633.792 1.266 1.662 2.057 2.611v-3.243c0-1.029 0-1.978-.079-2.849l-1.266-.95v-.078zm8.545.87 1.028-.712v-.08h-3.639l1.029.713v7.516l-1.108.791v.08h3.798v-.08l-1.108-.79zm10.364 7.595c-1.266.08-2.531.08-3.718 0V13.45h2.848l.712 1.029h.079V11.63h-.079l-.712 1.108h-2.927V9.494c.553-.079 1.186-.079 1.819-.079h1.899l.791 1.029h.079v-1.82h-7.199v.079l1.028.712v7.516l-1.028.791v.159h7.358v-2.058h-.079zm-31.568-8.386 1.187.95v6.091c-.712-1.028-1.424-1.82-1.978-2.61-.633-.792-1.186-1.504-1.661-2.058s-.87-1.107-1.187-1.503a15 15 0 0 1-.712-.95h-2.69v.08l1.266.95c.079 2.927.079 5.38 0 7.199l-1.029.87v.159h3.086v-.159l-1.187-.87c-.079-2.136-.079-4.272-.079-6.408l5.38 6.883c.079.079.158.237.237.316.08.08.159.238.159.238h1.266c-.08-1.187-.159-2.453-.159-3.798s0-2.848.079-4.43l1.108-.95v-.08h-3.165v.08zM240.221 6.25l1.424.87.079 9.97v1.028c0 .316-.079.554-.079.87l-.237.712c-.079.238-.237.396-.396.633-.237.238-.474.475-.791.633a2.2 2.2 0 0 1-1.028.237s.079-.079.079-.158.079-.079.079-.158v-.237c0-.08 0-.159-.079-.317-.079-.079-.079-.158-.158-.316-.08-.08-.159-.159-.317-.159-.079-.079-.237-.079-.316-.079s-.238 0-.317.08c-.079.079-.237.079-.316.158s-.159.158-.238.316c-.079.08-.079.238-.079.396 0 .237.079.395.158.554.08.158.238.237.396.395l.475.238c.158.079.316.079.554.079.395 0 .712-.08 1.028-.159.317-.158.633-.237.87-.474.317-.238.554-.475.792-.712.237-.317.474-.633.633-.95.158-.316.316-.554.395-.87.158-.237.237-.554.317-.87.079-.317.158-.633.237-1.029s.079-.791.079-1.266V7.2l1.187-.791V6.17H240.3v.08zm15.033 8.861q.237-.83.237-1.898c0-.633-.079-1.187-.237-1.741-.159-.554-.396-.95-.633-1.345-.317-.396-.633-.712-1.029-.87-.396-.238-.87-.317-1.345-.317s-.949.08-1.345.317-.712.554-1.028.95-.475.79-.633 1.344a6.1 6.1 0 0 0-.238 1.74c0 .713.079 1.267.238 1.82s.395 1.029.712 1.345c.316.396.633.633 1.028.87.396.159.791.317 1.266.317q.593 0 1.187-.237c.395-.237.712-.475 1.028-.87.396-.475.554-.87.792-1.425m1.345-4.43c.237.395.395.791.553 1.187.159.395.159.87.159 1.345a4.8 4.8 0 0 1-.396 1.898c-.237.554-.633 1.108-1.029 1.583-.474.475-.949.87-1.582 1.107-.633.317-1.266.396-1.978.396s-1.345-.08-1.978-.396c-.633-.237-1.107-.632-1.582-1.107s-.791-.95-1.108-1.583c-.237-.633-.395-1.266-.395-1.898 0-.712.158-1.345.395-1.978s.633-1.108 1.108-1.583 1.028-.79 1.582-1.107c.633-.238 1.266-.396 2.057-.396.396 0 .791.08 1.187.158.396.08.791.238 1.108.475.395.237.712.475 1.028.791.396.396.633.712.871 1.108m9.494-1.978 1.028.712v3.165h-4.826V9.415l1.029-.712v-.08h-3.64v.08l1.029.712v7.516l-1.029.791v.08h3.64v-.08l-1.029-.79V13.37h4.826v3.56l-1.028.791v.08h3.639v-.08l-1.029-.79V9.414l1.029-.712v-.08h-3.639zm83.073-2.374c.158.08.316.238.554.396.158.158.316.237.474.396a92 92 0 0 1-.949 3.323 26 26 0 0 0-.712 2.531c-.237.712-.396 1.266-.475 1.74-.079.476-.237.792-.237.95l-2.611-8.544.475-.475c.158-.158.316-.237.474-.396v-.079h-4.035v.158l1.029.792c-.317.87-.554 1.74-.791 2.531-.238.792-.475 1.504-.633 2.216a26 26 0 0 0-.554 1.977 50 50 0 0 1-.475 1.741l-2.373-8.465.949-.792v-.158h-3.877v.158c.159.159.317.238.396.317s.237.158.317.237l.158.158c.079.08.079.08.079.159.158.395.316.95.554 1.661.237.791.474 1.582.791 2.532.316.95.633 1.978 1.028 3.085.317 1.108.712 2.216 1.029 3.482h1.266v-.396c0-.08.079-.158.079-.237 0-.08.079-.159.079-.238.079-.395.237-.87.316-1.345.159-.474.238-.95.396-1.503.158-.554.317-1.028.475-1.582l.474-1.662c.159-.553.317-1.028.475-1.503.158-.554.317-.95.396-1.424l3.006 9.81h1.266c.079-.237.158-.632.317-1.186.158-.554.395-1.345.633-2.215.237-.87.632-1.978.949-3.244.396-1.266.791-2.69 1.266-4.194l.633-.632.316-.317v.08h-3.006zm8.94 7.437-1.503-3.955-1.424 3.955zm3.007 3.086 1.028.95v.079h-4.035v-.08l1.187-.87-.95-2.453h-3.402l-.87 2.453 1.187.87v.08h-3.086v-.08l1.029-.87 3.165-8.465h1.345zm30.539.237c-1.345.08-2.611.08-3.719 0V13.45h2.849l.712 1.029h.079V11.63h-.079l-.712 1.108h-2.928V9.494c.554-.079 1.187-.079 1.741-.079h1.978l.712 1.029h.079v-1.82h-7.2v.079l1.029.791v7.516l-1.029.791v.159h7.358v-2.137h-.079zm7.833-3.876c.791 0 1.345-.159 1.819-.554.396-.317.633-.87.633-1.503 0-.238-.079-.475-.158-.713-.079-.237-.237-.395-.396-.553a1.7 1.7 0 0 0-.633-.396 2.8 2.8 0 0 0-.87-.158h-1.345v3.797h.791zm4.667 4.43c.08.08.159.158.238.158v.08h-2.057l-2.136-3.64a.62.62 0 0 0-.317-.316c-.079 0-.237-.08-.475-.08h-1.028v3.165l1.028.712v.08h-3.718v-.08l1.108-.79V9.493l-1.029-.791v-.08h4.272c.554 0 1.029.08 1.504.159.474.158.87.316 1.107.554.317.237.554.475.712.791a2.18 2.18 0 0 1 0 1.978c-.158.316-.316.554-.633.712q-.355.356-.949.475c-.396.158-.791.158-1.187.237.317 0 .554.158.791.237.238.159.396.396.554.633l1.424 2.295c.079.079.159.158.238.316.079.08.158.238.237.396.158 0 .237.158.316.237M377.965 12.5a36 36 0 0 1 2.057-1.9c.553-.474.949-.87 1.266-1.107l1.424-.712v-.08h-3.086l.475.713a12 12 0 0 0-.95 1.029l-.949.949c-.317.316-.633.633-.949.87-.317.238-.554.554-.871.712 1.029 1.108 2.295 2.374 3.64 4.035l-.396.712v.08h3.323v-.08l-.712-.712c-1.978-2.057-3.402-3.48-4.272-4.51m-1.662-3.007 1.108-.791v-.08h-3.719v.08l1.029.791v7.516l-1.108.791v.08h3.798v-.08l-1.108-.79zm-5.934 7.516h-3.402V9.494l1.187-.712v-.08h-3.798v.08l1.029.712v7.516l-1.029.791v.08h7.042v-2.058h-.158zm-51.347-2.294c-.158-.158-.316-.475-.316-.87 0-.792.474-1.741 1.107-2.295.871-.633 1.662-.712 1.978-.791-.554 0-.791-.316-.791-.554 0-.079.158.08.475.158.395 0 .633-.079 1.107-.395.159-.08.159 0 .159.079a3.1 3.1 0 0 0 .553-1.266c.159.237.554.396.792.396.158.079.87.158 1.028.158-.079 0-.633-.238-.949-.396-.158-.079-.317-.079-.396-.158-.079-.08-.237-.08-.237-.158l-.079-.08-.079-.078c-.238-.238-.712-.95-.95-1.504a9 9 0 0 1-.474-1.345v-.633c0-.079.079-.158.079-.158 0-.079.079-.079.079-.079l.158-.158h.079c.079 0-.079.158-.158.475-.079.553.316.949.475 1.107.553.633.949.791 1.265 1.187.08.079 0 .079-.079.079-.158 0-.316-.08-.237 0q.237.237.475.237h.079c.079 0 .158 0 .237.08 0 0 .079 0 .079.079h.079s.079 0 .079.079h-.791c-.237-.08-.474-.159-.316 0l.079.079c.158.079.237.158.396.237h.158c.079 0 .079 0 .237-.079h.95c.079 0 0-.079-.08-.158-.079 0-.079-.08-.158-.08-.158-.078-.237-.078-.316-.157l-.079-.08-.08-.079-.079-.079v-.079c0-.08-.079-.158-.079-.158-.237-.396-.395-.791-.712-1.187-.079-.158-.395-.396-.475-.554-.079-.079-.079-.395-.079-.395.159 0 .554.712.633.79 0 0 0-.237-.079-.395 0-.079-.079-.237-.158-.316 0 0-.079-.238-.317-.396-.079-.079-.237-.158-.237-.158-.079 0 0-.08.237.079.159.08.238.08.238.08-.237-.238-.396-.238-.475-.317-.079 0 .237-.159.633-.159.317 0 .554.08.87.159.159 0 0-.08-.079-.159-.158-.158-.474-.158-.474-.237h.474c.158 0 .079-.079-.079-.158-.158-.08-.316-.08-.237-.08 0 0 .158-.078.237-.316.079-.158 0-.237 0-.237s.237.237.633.712.712 1.029 1.029 1.582c.474 1.108.553 2.137.553 2.137s0 .079.08 0c.158-.317.316-1.108.474-1.583 0-.158 0-.316-.079-.475-.158-.158 0-.316 0-.553s-.158-.238-.158-.317l-.554-.079h.317c.237 0 .395.08.474.158.079.08.238.396.475.317.158 0 .316.079.475.158l.158.158c0 .08-.079.158-.079.238s.079.158.079.237c0 0 .079.079.079 0v-.237c0-.159.079-.159.079-.159l.079.08v.079c0 .079.079.079.079.158 0 0 0 .079.079.079.159.158.396.237.475.316q.118 0 0 0c-.316-.237-.316-.237-.395-.316 0 0-.08-.08-.08-.158 0-.08-.079-.08-.079-.159 0 0 .079 0 .079-.079v-.079h-.316c-.158-.079-.237-.079-.237-.158-.079-.08.079 0 .158-.08.079-.078-.079-.236-.158-.157-.079.158-.079 0-.079-.08v-.237l.079-.079h.079l.079.08h.316s.079 0 .079-.08v-.08h-.316V4.59s0-.08-.079-.08c-.079-.078-.158-.158-.317-.158-.079-.079-.237-.158-.316-.158-.079-.079-.079-.079-.079-.158 0-.08-.079-.158-.079-.237-.079-.08-.079-.159-.079-.159.079-.079.158 0 .237.08l.079.079V3.64c0-.079.079-.237.079-.237v.238c0 .079.079.316.079.316s0 .079.079.079c.08 0 .08-.08.08-.08h.158s0-.078.079-.078V3.64c-.079-.079-.079 0-.079 0v-.158c0-.079-.079 0-.079 0v-.079c0-.08 0-.08-.079-.08h-.08c0-.078.317-.078.317 0 .079 0 .079 0 .158.08 0 0 0 .08.079.08h-.158.158l.079.078c0 .08 0 .159.079.396 0 .079.08.158.08.158.079.08.079.08.079.158v.08c0 .079 0 .079.079.079h.079s.079 0 .079.079c0 0 0 .079.079.079h.079c.159 0 .159.079.159.237v.08c0 .078.158.316.316.553.316.396.633.95.633 1.108s-.317.316-.396.316c-.158.08-.87.08-1.661 0-.87-.158-1.187-.237-1.266-.237-.079.395-.158.87-.237 1.187-.079.316-.238.79-.317 1.028h-.158c-.079 0-.158-.079-.237-.079-.159-.08-.238-.08-.317-.08h-.554c-.158 0-.237 0-.316.08-.158.08-.158.158.237.158h.791c.079 0 .238 0 .317.08.079 0 .237.079.237.079h.079c.238.079.317.079.475.158h.87v.079l-.079.079s-.079 0-.079.08c0 0-.079 0-.079.078-.079 0-.158.08-.237.158-.159.08-.238.317-.238.554s.238.159.158.317c0 0-.079.158-.158.079-.079 0-.158 0-.237-.08 0-.078.079-.158-.079-.237-.079-.079-.238-.079-.158.08l.079.079c-.238-.08-.238-.08-.317-.159 0 0 0-.079-.079-.079v-.079s-.079-.079-.079 0l-.079.08c-.079.078-.158 0-.158 0h-.08s.238.078.396.158c0 .237-.079.632-.158.712s-.317-.396-.396-.554v.079s0 .079-.079.079c-.079.158-.316.316-.316.316h-.475c-.949 0-2.057.633-2.453.792-.079 0-.158.079-.158.079.079 0 .475-.08.791-.158.159-.08.238-.08.633-.238h.079l-.079.08c-.237.237-.316.474-.87.79a2.9 2.9 0 0 1-.87.396c-.08 0-.079 0-.159.08-1.186.316-1.74.316-2.373.632-.396.237-.554.554-.475.791 0-.079 0-.395.396-.554.395-.316.949-.395 1.107-.395-.553-.317-1.582.395-1.503 1.345m6.646-7.12c-.079 0-.079.078-.079.157 0 .08.079.08.158.08s.079-.08.079-.159c0 0-.079-.079-.158-.079m-.158-.475c.079 0 .079-.08.079-.159s-.079-.079-.158-.079-.079.08-.079.158c.079 0 .079.08.158.08m-1.266-1.9c0 .08.554.396.949.871.159.158.317.317.317.396 0 0 .158.158 0-.159 0-.079-.158-.237-.396-.553-.316-.317-.554-.475-.554-.554s.159-.238.159-.238c-.08 0-.475.238-.475.238m1.028-1.423-.079-.08s-.316.159-.158.159c.079 0 .158-.08.237-.08m1.187 2.057c0-.159-.237-.159-.158 0 0 .079.079.158.079.158s.079 0 .079-.158m-2.294-4.352c0 .238.316.317.474.317h.159c0 .079 0 .158-.238.079-.079 0-.237 0-.237.237 0 .238.079.396.079.475s-.079.079-.079.079h-.079s0 .08.079.158h.396a.17.17 0 0 1 .158.158c.079.08.079.159.079.159.079 0 .079-.08.079-.08s-.079 0-.158-.079c0-.079 0-.158-.079-.237 0-.079-.079-.158-.079-.237 0-.08.079-.238.237-.238.079 0 .079.08.079.159h-.158l.079.079.079.079v.237s.158.158.237.158h.08s-.08-.079-.08-.316c0-.08 0-.08.08-.158h.237s.079 0 .079.079l.079.079.079.08h.396v.474l-.079.079h-.079l-.08.08v.236c0 .08-.079.08 0 .159 0 .079 0 .079-.079.158q-.119.119-.237 0c-.079 0-.079-.08-.158-.08l.079.08.079.079c.237.158.475.158.475 0 0-.08.158-.158.237-.396.158-.237.237-.237.317-.474.079-.08.079-.238.079-.396-.079 0-.159-.079-.317-.158-.079-.08-.158-.158-.158-.237-.158-.238-.158-.238-.317-.396-.079-.08-.158-.158-.237-.158 0 0-.079-.08 0-.08h.079c.317.159.554.317.554.396.079.158.158.238.237.317l.238.237c.237.08.554.08.633.08.158-.08.158-.08.158-.16l.079.08s.079 0 .079.08h.079v.078h.238l-.079-.158s-.238-.237-.317-.237-.079 0-.079.079v.079c-.079 0-.158-.08-.237-.08-.238-.078-.238-.078-.317-.157 0 0 .237-.396.396-.554l.395-.396c0-.079-.158-.712-.87-1.108C326.301 0 325.826 0 325.589 0q-.237.12-.237.237c0 .08 0 .317-.08.554-.079.158-.079.238-.079.317 0 0 0 .079.079.079 0 .079.396.316.396.395.079.08-.079.08-.079 0q-.118-.119-.475-.237c-.079 0-.316-.158-.633-.158-.079.079-.316.158-.316.316m1.899 3.007c-.08 0-.08-.08-.08-.08-.079 0-.079.08-.158 0-.158-.158-.316-.316-.395-.158v.238c0 .158.079.395.079.395s0 .08.079 0c.079 0 .158-.079.158-.079s.079 0 .079.08c.079.078.158.078.158 0l.08-.08c.079.08.316.238.237.08 0 0-.079-.238 0-.475 0-.08.079-.08 0-.08h-.158s-.079.08-.079.159m.395 1.899s.158 0 .158-.159c0-.158-.158-.079-.158 0zm-5.696 12.263c.158 0 .079 0 .079.079a4 4 0 0 0-.396.474c-.158.238-.87 1.108-1.028 1.583-.158.316-.159.475-.159.554h-.237c-.079 0 0 .079.079.079s.079.079.158.079c0 0 .08 0 .08-.08v.08c0 .079 0 .158-.08.158 0 .238 0 .396.08.712.079.317.316.554.316.554s.317.158.396.317c.158.158 0 .316 0 .316s.079 0 0 .158c0 0-.079.08-.238.08s-.474 0-.87-.159c-.316-.158-.475-.237-.554-.554a3.5 3.5 0 0 1-.237-.633h-.237l-.159-.316c-.079-.237 0-.475 0-.475s0-.158.079-.316c0 .079.08.158.159.079.079-.08.079-.158.158-.158.079-.08.079-.08.079-.159 0 0-.079-.079-.158 0l.079-.079s.079-.079.079-.158c0-.08.079-.237.158-.475.079-.316.238-.87.317-1.186.158-.317.316-.712.474-.87 0-.08 0 0 .079.078 0 .08.08.08.08.08l.079.079c-.079.158-.158.237-.317.553-.079.159-.395.95-.474 1.424-.08.475 0 .238.079 0 .079-.158.237-.712.316-.949s.475-.87.475-.95c.079-.078.079-.078.158-.078s.237.079.396.079c.237.079.712 0 .712 0m-2.295 4.035c.079-.08.079-.238-.079-.396-.079-.158-.237-.237-.237-.316s0-.238-.079-.159v.159c0 .158.158.316.237.395 0 .159.079.396.158.317m.633.474s-.079-.079-.158-.079-.158.08-.079.159.237.079.316.158c.08 0 .079.079.159.079 0 0-.079 0-.159-.08 0-.157 0-.237-.079-.237m-.237-.158c.158 0 .237-.079.079-.079 0 0-.158 0-.237.08-.079.078-.079.157 0 .078.079 0 .079-.079.158-.079m9.178-12.975c.079 0 .237 0 .316-.08.079-.078.158-.078.237-.078s.079-.08.079-.159 0-.079.08-.079c.079 0 .079-.079.079-.079v-.079l.079-.079a.17.17 0 0 0 .158-.158v-.159s-.079.08-.158 0c-.079-.079-.158-.079-.238-.079h-.079c0 .08.079.08 0 .159 0 0-.079 0-.079.079-.079 0-.079.079-.079.158v.08c-.079 0-.079.078-.079.157 0 .08 0 .08-.079.08s-.079.079-.317.079c-.158 0-.237 0-.316-.08-.079 0-.158 0-.158.08 0 .079 0 .079.079.079s.079.079 0 .079.079.079.158.079c-.316.633-4.114 8.228-4.114 8.307v.08h.079c-.079-.08 4.352-8.387 4.352-8.387m.237-1.187c0 .08.158-.079.237-.079h.158l.08-.158a.34.34 0 0 0 .316-.317.34.34 0 0 0-.316-.316c-.08 0-.159 0-.238.079h.079s-.079.08-.079.158v.08h-.079v-.08c0 .08-.079.08-.079.158 0 .08 0 .159.079.159-.079.079-.158.316-.158.316m3.402 12.659.079.079c-.079.237-.475.791-.791.95s-.791.237-1.029.316l-.158.079.079.237s-.079.08-.316.238c-.238.079-.317.158-.317.158l-.237-.237s-.237-.159-.317-.396c0-.08-.079-.08-.079-.158v-.08c-.079-.157-.079-.237-.079-.237 0-.079-.079-.079-.079-.158v-.159c.079-.157-.079-.157-.079-.157h-.079c-.079-.08-.079-.159-.079-.159 0-.079-.079-.079-.079-.158l-.079-.079c-.238-.316-.396-.475-.792-1.108-.395-.553-.474-1.028-.474-1.028s.079-.08.158-.08.079 0 .158.08v.079c0 .08.079.316.158.475.079.237.159.474.317.633.158.237.554.712.791.949.158.158-.158-.237-.396-.633a4.2 4.2 0 0 1-.633-1.424c0-.08-.079-.08-.079-.158l-.079-.08s-.079 0-.079-.078c0 0 .079-.08.237-.159.159-.158.238-.395.317-.633.079-.079.079-.158.158-.237 0-.158 0-.396.079-.316 0 0 0 .079.079.158v.079c.08.237.238.95.554 1.74.238.712.554 1.266.633 1.504 0 .079.079.079.079.158h.159c.079 0 .079.079.079.079.079.08.158.08.237.08.396.078.712.157 1.029.078h.079l-.079.08c-.238.158-.475.158-.475.158.158.158.475 0 .554-.08.079-.079.079-.079.158 0h.079s0-.158.079-.237c0-.079.079-.158.079-.158.238-.08.396.079.475 0-.079.079-.079 0 0 0m-2.769 1.266v-.238s0-.158-.079-.158c-.079-.079-.159 0-.159.08 0 .079 0 .158.08.237 0 .079.079.079.158.079m1.107 0q0-.12 0 0c0-.08-.079 0-.237 0s-.395 0-.475.079-.158.237 0 .158l.317-.158c.158 0 .237-.08.395-.08m-2.927-3.956c.237-.158.317-.475.396-.712.079-.317.237-.475.316-.554 0 0 0-.158-.079-.237h-.158c0-.08.079-.159.079-.238s0-.237-.079-.474c0-.08-.079-.159-.079-.159v.159c0 .158 0 .316-.079.395-.08.159-.159.317-.159.396s0 .158.079.158c0 0 .08 0 .08.08 0 .078 0 .237-.238.553-.079.08-.237.237-.395.317v.158c0 .079-.079.158-.079.158h-.08c-.158.08 0 .237 0 .237s.159 0 .475-.237m-3.244-3.956c.317-.554.554-.95.791-1.187l.396-.395c.079-.08-.079-.08-.475.158q-.237.119-.474.475c-.317.474-.712 1.186-.792 1.503-.079.237-.316.554-.474.712-.238.237-.475.316-.633.395l-.079.08-.079.079v.158c0 .08 0 .158-.079.237 0 0-.08.08-.238.159h-.158c-.079 0-.158.079-.079.079 0 0 .079 0 .079.079.079 0 .079 0 .079.079q0 .12-.237.237c-.317.08-.871.08-.871.08h-.395s0 .079.158.079c.079 0 .317.079.396.079s.079.079 0 .079-.475 0-.633-.08c0 0-.079 0-.079-.078-.08-.08-.159-.159-.238-.159 0 0 0-.079-.079-.158l-.158.237s0 .08.079.238v-.08s.079-.078.079 0v.238c.079.08.237.158.396.158.474.08.791 0 .87 0h.158v.08c0 .079 0 .079-.079.079.079 0 .079-.08.079-.08.079 0 .158-.158.238-.158.079-.079.158-.158.158-.237v-.08c0-.078 0-.158.158-.237.079-.079.237-.079.317-.237.079-.08-.001-.237.158-.396.079-.079.237-.158.316-.237l.158-.317.554-.553c.317-.317.396-.633.712-1.108m3.64-5.617c-.079 0-.159.079-.079.079h.237l.158-.08zm-6.171 3.323c-.317.079-.475.079-.554.079-.554.554-.238 1.028-.079 1.107.158.08 0-.079.553-.712.159-.237.633-.553.713-.553-.08-.08-.317 0-.633.079m7.357-3.719s.238.158.317.158c0 0 .079 0 .079.08.079 0 .079-.08.079-.08 0-.079-.079-.079-.158-.079-.079-.079-.158-.158-.317-.079"/><path fill="url(#b)" stroke="#261F80" stroke-linecap="round" stroke-linejoin="round" stroke-miterlimit="10" stroke-width="1.52" d="m55.72 137.902-31.806 13.687c.87-12.184 9.652-23.735 26.584-29.906l-1.583-6.646-4.51-10.206-10.76.712c1.978-9.257 7.675-16.694 15.112-20.255l-1.345 9.574 5.538 9.573 10.84.237 1.107-23.023-4.51-10.206-11.946-7.279c-20.017 3.244-33.863 23.34-31.964 41.062.08.712.158 1.503.317 2.215l5.3 8.545c-10.047 8.07-15.586 19.7-14.32 31.647.317 2.769.475 6.013 1.503 8.782l5.46 9.415 14.162 5.617 35.049-12.421-3.719-10.997z"/><path fill="url(#c)" stroke="#261F80" stroke-linecap="round" stroke-linejoin="round" stroke-miterlimit="10" stroke-width="1.52" d="m339.515 60.683-17.248 6.567c0-.08-2.611-5.222-2.611-5.222l-11.155-4.272c-1.187 2.215-2.216 4.51-3.323 7.041l-7.358-5.459c-6.567 2.927-10.681 8.94-14.004 15.744-3.639 7.517-7.437 13.846-11.472 19.147 1.899-4.668 2.532-9.89 2.057-14.795l-4.431-9.969-11.472-6.409c-9.573 1.583-15.111 7.121-19.304 14.004l-15.112 24.368 1.266-14.636-4.43-10.127-10.127-9.494-29.986-1.504-.633 12.264 5.459 9.494h2.136c-4.984 23.26-17.959 33.862-34.811 36.631-.158-.949-.317-1.978-.475-3.006a46 46 0 0 1-.237-4.668l6.171 3.639c14.162-4.272 19.621-17.564 18.513-30.223l-4.43-10.127-8.624-4.589c6.171-3.164 12.105-6.725 16.852-10.285l-4.431-10.048-6.962-8.94c-5.143 4.51-24.21 17.722-24.21 17.722l3.323 6.646 3.798 6.33c-3.402 1.977-6.092 4.667-8.545 7.832l-25.238 32.122 1.898-21.995a527 527 0 0 1 16.536-2.294l.316-11.393-4.43-10.048c-4.51.712-9.336 1.661-13.529 2.453l.316-3.956-1.899-5.143-11.63-2.61-.791 14.557c-9.02 1.978-17.722 4.351-26.663 7.041l-7.832 13.45c2.294 9.02 8.861 22.47 10.76 31.093-1.424.95-3.323 2.057-5.301 3.086l.316-4.035-4.43-10.048-10.127.158-.633 20.65 5.617 9.494 13.767 3.639c9.81-3.481 16.377-9.494 15.744-15.507-.791-7.199-8.703-21.599-10.918-32.2 3.64-1.741 10.127-3.64 18.592-5.46l-1.898 36.236 4.984 9.811 11.788 3.164 19.938-27.295 3.402 7.437 5.459 9.415 13.846 5.696c27.058-5.38 37.264-24.684 39.796-48.024l-3.798-6.646 11.63-.079-2.373 35.682 5.538 9.494 11.789 3.165 13.37-23.261 1.583 4.194 5.459 9.494 13.845 5.696c8.545-4.351 17.327-11.393 25.239-23.023l1.028 3.006 5.459 9.495 13.767 5.696c16.298-4.826 23.656-21.757 23.419-38.451 6.013-2.374 12.658-5.46 20.412-9.731l-4.272-9.732zm-89.245 50.081c-.158-1.74-.316-3.481-.158-5.301l6.804 3.877c-2.057 1.424-4.114 2.611-6.25 3.719-.238-.712-.317-1.504-.396-2.295m60.604-16.377c-2.532 7.041-7.358 12.105-14.557 14.479-.159-.792-.317-1.662-.396-2.532-.949-8.782 1.345-18.435 6.092-24.368z"/><path stroke="#29247E" stroke-linecap="round" stroke-linejoin="round" stroke-miterlimit="10" stroke-width="3.045" d="m23.914 161.637 34.97-12.422-3.718-10.997-34.812 14.874a30 30 0 0 1-1.424-6.171c-1.503-13.925 7.2-28.008 26.504-35.049l-1.582-6.646-15.982.475c-1.028-16.298 8.861-29.827 21.916-32.122l-1.741 21.125 10.84.237 1.107-23.023-11.472-7.675c-20.017 3.244-33.388 23.182-31.489 40.904.08.712.158 1.503.317 2.215l10.364 4.985C14.182 120.1 6.35 133.629 7.853 147.712c.317 2.769.95 5.617 1.978 8.387z"/><path fill="url(#d)" d="m23.914 161.637 34.97-12.422-3.718-10.997-34.812 14.874a30 30 0 0 1-1.424-6.171c-1.503-13.925 7.2-28.008 26.504-35.049l-1.582-6.646-15.982.475c-1.028-16.298 8.861-29.827 21.916-32.122l-1.741 21.125 10.84.237 1.107-23.023-11.472-7.675c-20.017 3.244-33.388 23.182-31.489 40.904.08.712.158 1.503.317 2.215l10.364 4.985C14.182 120.1 6.35 133.629 7.853 147.712c.317 2.769.95 5.617 1.978 8.387z"/><path stroke="#29247E" stroke-linecap="round" stroke-linejoin="round" stroke-miterlimit="10" stroke-width="3.045" d="M149.156 69.86c9.415-4.193 19.463-9.493 26.663-14.952l-6.409-9.099c-6.725 5.855-15.111 12.263-23.656 17.801z"/><path fill="url(#e)" d="M149.156 69.86c9.415-4.193 19.463-9.493 26.663-14.952l-6.409-9.099c-6.725 5.855-15.111 12.263-23.656 17.801z"/><path stroke="#29247E" stroke-linecap="round" stroke-linejoin="round" stroke-miterlimit="10" stroke-width="3.045" d="m339.514 60.683-18.197 6.962c-.474-1.898-.949-3.797-1.661-5.617L308.5 57.756c-1.186 2.215-2.215 4.51-3.322 7.041l-7.358-5.459c-6.567 2.927-10.681 8.94-14.004 15.744-10.048 20.57-20.887 32.122-34.416 38.689-2.295-3.798-3.561-8.228-4.035-12.817-.158-1.74-.317-3.481-.158-5.301l6.171 3.481c14.083-4.51 19.383-17.643 18.118-29.432l-10.998-6.645c-9.573 1.582-15.111 7.12-19.304 14.003l-21.837 35.128 2.928-35.286-9.495-9.731-29.985-1.504-.158 11.868 8.703-.08c-3.165 30.698-17.644 43.753-37.106 46.68-2.611-3.56-4.114-8.149-4.668-12.975a46 46 0 0 1-.238-4.668l6.171 3.639c14.162-4.272 19.622-17.564 18.514-30.222l-10.839-6.567c-8.149 1.345-13.134 5.538-17.327 10.918l-31.884 40.429 3.402-40.112a527 527 0 0 1 16.535-2.295l.317-11.393c-5.617.87-10.839 1.82-15.903 2.848l.791-9.415-10.997-2.848-.791 14.558c-9.02 1.978-17.722 4.351-26.663 7.041l-7.832 13.45c2.294 9.02 8.861 22.47 10.76 31.093-2.77 1.899-7.12 4.114-11.235 5.697l1.266-16.457h-9.494v20.334l13.766 3.639c9.81-3.481 16.378-9.494 15.745-15.507-.791-7.2-8.703-21.599-10.918-32.2 4.43-2.137 12.975-4.431 24.13-6.568l-2.452 47.233 11.788 3.165 22.786-31.251c-.079 1.899 0 3.718.237 5.538.633 5.776 2.532 11.235 5.697 15.27l13.845 5.696c27.058-5.38 37.265-24.684 39.796-48.024l-4.826-6.646 18.197-.158-2.373 45.255 11.788 3.165 15.349-26.663.158 2.057c.633 5.617 2.295 10.839 4.985 15.032l13.845 5.697c9.099-4.589 18.593-12.422 26.9-25.555l.079.554c.554 5.142 2.136 10.206 4.826 14.399l13.767 5.697c16.298-4.827 23.656-21.758 23.418-38.451 6.013-2.374 12.659-5.46 20.413-9.732zm-79.592 10.523c.396 12.817-5.617 19.858-14.795 23.26.712-11.155 5.934-21.678 14.795-23.26M162.608 81.57c.475 13.608-5.934 20.491-15.191 23.814.554-11.313 6.172-22.232 15.191-23.814m132.522 27.612c-2.295-3.719-3.64-8.07-4.115-12.738-1.345-12.58 3.877-26.742 13.371-29.669-1.661 3.877-3.164 7.99-4.588 11.868l6.25 5.933 7.12-2.452c-.553 13.925-6.408 23.814-18.038 27.058"/><path fill="url(#f)" d="m339.514 60.683-18.197 6.962c-.474-1.898-.949-3.797-1.661-5.617L308.5 57.756c-1.186 2.215-2.215 4.51-3.322 7.041l-7.358-5.459c-6.567 2.927-10.681 8.94-14.004 15.744-10.048 20.57-20.887 32.122-34.416 38.689-2.295-3.798-3.561-8.228-4.035-12.817-.158-1.74-.317-3.481-.158-5.301l6.171 3.481c14.083-4.51 19.383-17.643 18.118-29.432l-10.998-6.645c-9.573 1.582-15.111 7.12-19.304 14.003l-21.837 35.128 2.928-35.286-9.495-9.731-29.985-1.504-.158 11.868 8.703-.08c-3.165 30.698-17.644 43.753-37.106 46.68-2.611-3.56-4.114-8.149-4.668-12.975a46 46 0 0 1-.238-4.668l6.171 3.639c14.162-4.272 19.622-17.564 18.514-30.222l-10.839-6.567c-8.149 1.345-13.134 5.538-17.327 10.918l-31.884 40.429 3.402-40.112a527 527 0 0 1 16.535-2.295l.317-11.393c-5.617.87-10.839 1.82-15.903 2.848l.791-9.415-10.997-2.848-.791 14.558c-9.02 1.978-17.722 4.351-26.663 7.041l-7.832 13.45c2.294 9.02 8.861 22.47 10.76 31.093-2.77 1.899-7.12 4.114-11.235 5.697l1.266-16.457h-9.494v20.334l13.766 3.639c9.81-3.481 16.378-9.494 15.745-15.507-.791-7.2-8.703-21.599-10.918-32.2 4.43-2.137 12.975-4.431 24.13-6.568l-2.452 47.233 11.788 3.165 22.786-31.251c-.079 1.899 0 3.718.237 5.538.633 5.776 2.532 11.235 5.697 15.27l13.845 5.696c27.058-5.38 37.265-24.684 39.796-48.024l-4.826-6.646 18.197-.158-2.373 45.255 11.788 3.165 15.349-26.663.158 2.057c.633 5.617 2.295 10.839 4.985 15.032l13.845 5.697c9.099-4.589 18.593-12.422 26.9-25.555l.079.554c.554 5.142 2.136 10.206 4.826 14.399l13.767 5.697c16.298-4.827 23.656-21.758 23.418-38.451 6.013-2.374 12.659-5.46 20.413-9.732zm-79.592 10.523c.396 12.817-5.617 19.858-14.795 23.26.712-11.155 5.934-21.678 14.795-23.26M162.608 81.57c.475 13.608-5.934 20.491-15.191 23.814.554-11.313 6.172-22.232 15.191-23.814m132.522 27.612c-2.295-3.719-3.64-8.07-4.115-12.738-1.345-12.58 3.877-26.742 13.371-29.669-1.661 3.877-3.164 7.99-4.588 11.868l6.25 5.933 7.12-2.452c-.553 13.925-6.408 23.814-18.038 27.058"/><path fill="url(#g)" stroke="#261F80" stroke-linecap="round" stroke-linejoin="round" stroke-miterlimit="10" stroke-width="1.52" d="m400.83 75.715-12.58-8.386c-13.529-1.187-31.488 1.978-45.097 6.567l-.237 12.421 5.538 9.652a108 108 0 0 1 7.912-3.006l-3.639 62.74 5.538 9.494 11.314 3.165.712-33.704 5.933 3.797c12.659-4.43 31.647-18.75 29.036-52.613zm-10.997 10.602c-.712 12.738-6.646 25.555-19.226 32.28l.475-23.102-3.719-5.855a120.4 120.4 0 0 1 22.47-3.323"/><path fill="url(#h)" stroke="#261F80" stroke-linecap="round" stroke-linejoin="round" stroke-miterlimit="10" stroke-width="1.52" d="m633.039 93.754-6.092-4.747c-2.057 2.453-4.193 4.747-6.33 7.041l1.345-16.535-4.43-10.048-10.76-5.934c-8.307 1.424-14.241 5.934-18.039 12.105l-17.801 28.799.712-25.318-4.352-9.968-11.551-.159-17.801 33.546.633-16.377-4.431-10.048-14.32-3.323-13.925 29.59 1.187-16.377-4.431-10.127h-11.788c-5.38 13.845-10.602 24.605-16.298 32.912l1.186-13.766-4.43-10.127-10.681-5.776c-8.228 1.424-14.241 5.934-18.039 12.105l-17.801 28.799.712-25.317-4.431-10.127-11.472-.08-.158 54.275 5.459 9.573 11.789 3.165 12.975-22.865 1.424 3.877 5.459 9.494 13.846 5.696c10.285-5.222 20.887-14.241 29.669-30.618l-.791 14.874 5.538 9.652 9.81 2.532 17.802-35.999-.554 16.694 5.459 9.494 11.868 3.086 16.535-32.676-.316 18.593 5.459 9.494 11.788 3.165 12.976-22.865 1.424 3.877 5.459 9.573 14.083 5.538c8.544-4.905 21.124-15.665 30.855-28.324zm-34.574 17.96c-1.029-9.969 1.898-20.808 7.674-26.425l-.317 4.272 4.985 9.81 6.487-.079c-5.775 5.618-11.946 10.444-18.513 14.162-.158-.554-.237-1.107-.316-1.74M452.572 129.12l-.237-1.899c-1.029-9.969 1.819-20.729 7.595-26.346l-.158 2.373 4.984 9.811 6.804-.079c-5.696 7.278-11.788 12.421-18.988 16.14"/><path fill="url(#i)" stroke="#261F80" stroke-linecap="round" stroke-linejoin="round" stroke-miterlimit="10" stroke-width="1.52" d="m561.042 66.142 10.602 1.187 1.503-20.57-4.431-10.128-12.817 2.453-.395 17.564z"/><path fill="url(#j)" stroke="#261F80" stroke-linecap="round" stroke-linejoin="round" stroke-miterlimit="10" stroke-width="1.52" d="m414.913 81.65 10.602 1.265 1.503-20.65-4.43-10.206-12.817 2.532-.238 17.643z"/><path stroke="#29247E" stroke-linecap="round" stroke-linejoin="round" stroke-miterlimit="10" stroke-width="3.045" d="m566.659 57.518 1.582-20.57-12.263 2.136.158 17.248zm-66.933 76.744 22.865-46.204-.159 36.394 11.868 3.085 21.362-42.328.237 37.66 11.788 3.165 14.954-26.346.158 2.136c.554 5.459 2.136 10.602 4.826 14.716l13.846 5.696c8.544-4.905 21.124-15.665 30.855-28.324l-5.538-4.984c-8.782 10.364-18.672 19.384-29.511 25.238-2.294-3.718-3.481-7.911-3.956-12.342-1.345-12.975 3.956-27.374 13.688-29.985l-1.424 17.722 9.494-.08 1.582-19.858-10.206-6.092c-8.307 1.424-14.241 5.934-18.039 12.105l-23.339 37.739 1.265-44.068-10.918-.317-23.656 44.543 1.503-37.106-13.45-3.639-20.728 44.147 3.006-40.745-11.235-.316c-11.788 30.46-23.023 45.888-39.637 53.958-2.295-3.719-3.482-7.912-3.956-12.343-1.345-12.975 3.956-27.374 13.687-29.985l-1.266 15.823 9.494-.079 1.504-17.96-10.207-6.091c-8.228 1.424-14.241 5.933-18.038 12.104l-23.34 37.739 1.266-44.068-10.918-.316.316 54.037 11.789 3.164 14.953-26.346.158 2.137c.554 5.459 2.136 10.601 4.826 14.715l13.846 5.697c12.5-6.33 25.317-18.197 35.049-41.932l-.554 35.84zm-79.197-61.237 1.582-20.57-12.342 2.136.158 17.248zm-55.145 47.866.712-35.286-6.645-5.064a125 125 0 0 1 29.748-4.272l.395 2.453c1.82 16.614-5.221 35.523-24.21 42.169m-.712 37.66.712-33.704 5.934 3.798c12.659-4.431 31.647-18.751 29.036-52.613l-12.105-8.703c-13.529-1.187-31.488 1.978-45.097 6.567l.396 12.184c4.431-1.9 8.94-3.481 13.529-4.826l-3.719 74.053z"/><path fill="url(#k)" d="m566.659 57.518 1.582-20.57-12.263 2.136.158 17.248zm-66.933 76.744 22.865-46.204-.159 36.394 11.868 3.085 21.362-42.328.237 37.66 11.788 3.165 14.954-26.346.158 2.136c.554 5.459 2.136 10.602 4.826 14.716l13.846 5.696c8.544-4.905 21.124-15.665 30.855-28.324l-5.538-4.984c-8.782 10.364-18.672 19.384-29.511 25.238-2.294-3.718-3.481-7.911-3.955-12.342-1.345-12.975 3.955-27.374 13.687-29.985l-1.424 17.722 9.494-.08 1.582-19.858-10.206-6.092c-8.307 1.424-14.241 5.934-18.039 12.105l-23.339 37.739 1.265-44.068-10.918-.317-23.656 44.543 1.503-37.106-13.45-3.639-20.728 44.147 3.006-40.745-11.235-.316c-11.788 30.46-23.023 45.888-39.637 53.958-2.295-3.719-3.482-7.912-3.956-12.343-1.345-12.975 3.956-27.374 13.687-29.985l-1.266 15.823 9.494-.079 1.504-17.96-10.207-6.091c-8.228 1.424-14.241 5.933-18.038 12.104l-23.34 37.739 1.266-44.068-10.918-.316.316 54.037 11.789 3.164 14.953-26.346.158 2.137c.554 5.459 2.136 10.601 4.826 14.715l13.846 5.697c12.5-6.33 25.317-18.197 35.049-41.932l-.554 35.84zm-79.197-61.237 1.582-20.57-12.342 2.136.158 17.248zm-55.145 47.866.712-35.286-6.645-5.064a125 125 0 0 1 29.748-4.272l.395 2.453c1.82 16.614-5.221 35.523-24.21 42.169m-.712 37.66.712-33.704 5.934 3.798c12.659-4.431 31.647-18.751 29.036-52.613l-12.105-8.703c-13.529-1.187-31.488 1.978-45.097 6.567l.396 12.184c4.431-1.9 8.94-3.481 13.529-4.826l-3.719 74.053z"/><path fill="#fff" d="M23.52 55.54c0 10.444-8.466 18.989-18.989 18.989 10.444 0 18.988 8.465 18.988 18.988 0-10.444 8.466-18.988 18.989-18.988-10.523 0-18.989-8.545-18.989-18.989m592.747-.553c0 7.2-5.775 12.975-12.975 12.975 7.2 0 12.975 5.775 12.975 12.975 0-7.2 5.776-12.975 12.976-12.975-7.121-.08-12.976-5.855-12.976-12.975"/><path fill="#fff" stroke="#fff" stroke-miterlimit="10" stroke-width=".144" d="m384.927 178.726-7.12.871.791-1.504c1.266-.87 2.373-1.582 3.244-2.215.87-.633 1.582-1.266 2.136-1.741.554-.553.949-.949 1.187-1.424.237-.395.316-.791.316-1.186a.83.83 0 0 0-.396-.713c-.237-.158-.553-.237-1.028-.158-.633.079-1.108.396-1.503.95-.396.553-.633 1.266-.633 2.136h-1.741c.079-.554.158-1.108.396-1.583.237-.553.474-1.028.791-1.424.316-.395.712-.791 1.187-1.028.474-.317.949-.475 1.503-.554s.949-.079 1.345 0 .712.237.949.396c.238.158.475.474.554.712.158.316.238.553.238.949 0 .949-.475 1.978-1.504 3.007-1.028 1.107-2.531 2.215-4.43 3.56l4.351-.554zm5.538-10.285 7.358-.87c-.791.791-1.582 1.582-2.294 2.452l-2.136 2.611c-.633.87-1.266 1.741-1.82 2.69-.554.95-1.108 1.899-1.503 2.848l-2.136.238c1.028-1.978 2.136-3.64 3.164-5.064a23 23 0 0 1 3.481-3.797v-.08l-4.905.633zm4.273 10.76v-.791c.079 0 .159 0 .238.079h.316a.44.44 0 0 0 .396-.237c.079-.08.158-.238.158-.475v-.317l-.949.079-.08-1.74 1.899-.237.079 2.136c0 .395-.079.791-.316 1.028q-.356.357-.95.475h-.395c-.158.079-.317 0-.396 0Zm16.615-3.719-7.121.871.792-1.504c1.265-.87 2.373-1.582 3.243-2.215.871-.633 1.583-1.266 2.137-1.74.553-.554.949-.95 1.186-1.425.238-.395.317-.791.317-1.186a.83.83 0 0 0-.396-.712c-.237-.159-.554-.238-1.028-.159-.633.079-1.108.396-1.504.95s-.632 1.266-.632 2.136h-1.741c.079-.554.158-1.108.396-1.582.237-.475.474-1.029.791-1.425.316-.395.712-.791 1.186-1.028.475-.317.95-.475 1.504-.554.553-.079.949-.079 1.345 0 .395.079.712.237.949.396.237.158.475.474.554.712.079.237.237.554.237.949 0 .95-.474 1.978-1.503 3.007-1.029 1.107-2.532 2.215-4.431 3.56l4.352-.554zm9.731-10.997c.475-.079.95-.079 1.266 0 .396.079.633.158.87.317.238.158.396.316.554.553.079.238.158.475.158.712 0 .396-.079.712-.158 1.029-.158.316-.316.633-.474.87-.238.238-.475.475-.712.633-.317.158-.554.317-.871.475v.079q.357.118.712.475c.238.237.317.633.317 1.028 0 .554-.079 1.108-.396 1.583-.237.474-.633.87-1.107 1.265-.475.396-.95.633-1.504.871a6.6 6.6 0 0 1-1.661.474c-1.029.159-1.82 0-2.453-.395-.633-.396-.949-.95-.949-1.741 0-.395.079-.791.237-1.107.158-.396.396-.712.712-1.029a6 6 0 0 1 1.108-.87c.475-.238.949-.475 1.503-.554q-.237-.118-.475-.475c-.158-.237-.237-.474-.237-.87s.079-.712.237-1.108c.159-.395.396-.712.792-1.028.316-.317.712-.554 1.107-.791.475-.238.95-.317 1.424-.396Zm-2.848 8.861c.317 0 .633-.158.949-.237.317-.158.633-.317.871-.475.237-.237.474-.395.633-.712.158-.237.237-.554.237-.87q0-.475-.475-.712c-.316-.158-.712-.238-1.186-.158-.317 0-.633.158-.95.237-.316.158-.633.316-.87.475-.237.237-.475.474-.633.712a1.5 1.5 0 0 0-.237.791c0 .395.158.633.474.791.238.158.633.237 1.187.158Zm2.136-4.984c.238 0 .475-.079.712-.158.238-.08.475-.238.633-.396s.317-.316.475-.554c.079-.237.158-.395.158-.633 0-.237-.158-.395-.316-.554-.238-.158-.475-.158-.791-.158q-.357 0-.713.238a1.7 1.7 0 0 0-.632.395 3.4 3.4 0 0 0-.475.554c-.079.237-.158.396-.158.633s.158.475.395.554c.079.079.396.079.712.079Zm4.431 7.2v-.792c.079 0 .158 0 .237.079h.317a.43.43 0 0 0 .395-.237c.079-.079.158-.237.158-.475v-.316l-.949.079-.079-1.741 1.899-.237.079 2.136c0 .396-.079.791-.317 1.029q-.356.355-.949.475zm16.693-3.719-7.121.87.791-1.503c1.266-.87 2.374-1.582 3.244-2.215s1.582-1.266 2.136-1.741c.554-.554.95-.949 1.187-1.424.237-.396.316-.791.316-1.187a.83.83 0 0 0-.395-.712c-.238-.158-.554-.237-1.029-.158-.633.079-1.107.396-1.503.949-.396.554-.633 1.266-.633 2.137h-1.74c.079-.554.158-1.108.395-1.583.158-.554.475-1.028.791-1.424s.712-.791 1.187-1.028c.475-.317.949-.475 1.503-.554s.95-.079 1.345 0c.396.079.712.237.95.395a1.6 1.6 0 0 1 .553.712c.159.317.238.554.238.95 0 .949-.475 1.978-1.503 3.006-1.029 1.108-2.532 2.216-4.431 3.561l4.351-.554zm9.257-10.997c.95-.079 1.741 0 2.295.395.553.396.791 1.108.87 2.136 0 .633-.079 1.345-.317 2.216-.237.87-.632 1.661-1.107 2.452-.475.792-1.187 1.504-1.899 2.137-.791.632-1.661.949-2.769 1.107-.791.079-1.424 0-2.057-.158-.554-.237-1.029-.554-1.345-1.108l1.424-1.186c.158.395.396.632.712.87.316.158.712.237 1.187.158.316 0 .633-.158.949-.316a7.3 7.3 0 0 0 1.029-.633c.316-.238.633-.633.949-1.029.317-.395.554-.87.791-1.424h-.079c-.237.316-.554.554-1.028.712-.396.158-.792.317-1.187.317-.791.079-1.424-.08-1.82-.475-.475-.396-.712-.95-.712-1.583 0-.474.079-.949.317-1.424.237-.553.474-1.028.87-1.424.395-.474.791-.791 1.266-1.107a4.25 4.25 0 0 1 1.661-.633Zm1.345 2.452a.83.83 0 0 0-.395-.712 1.1 1.1 0 0 0-.871-.158c-.316 0-.633.158-.87.316-.316.159-.554.396-.791.633-.237.238-.396.554-.554.871s-.158.633-.158.949c0 .317.158.554.316.712.238.158.475.238.871.158.316 0 .633-.158.949-.316s.554-.396.791-.633.396-.554.554-.87c.158-.396.158-.633.158-.95Zm10.364 5.934-1.978.237 2.453-4.747-.237-5.142 1.74-.238.158 3.719 3.956-4.193 2.453-.317-6.409 6.567zm14.637-1.503a5.3 5.3 0 0 1-1.582 0q-.712-.118-1.187-.475a3.8 3.8 0 0 1-.791-.791c-.158-.316-.237-.712-.316-1.108l1.661-.633c.079.554.317.95.633 1.266.396.238.791.317 1.345.238.237 0 .554-.079.791-.238q.357-.118.712-.474.357-.238.475-.712c.158-.238.158-.554.158-.871 0-.158-.079-.316-.158-.474-.079-.159-.237-.317-.396-.475-.158-.158-.395-.238-.712-.317s-.633-.079-1.028 0l3.639-3.718-4.351.554.949-1.583 7.358-.87-4.826 4.747c.237.079.554.317.791.633s.396.791.396 1.266c0 .554-.079 1.108-.238 1.503-.158.475-.474.87-.791 1.187-.316.316-.791.633-1.266.87-.158.238-.712.396-1.266.475Zm9.811-1.266c-1.029.158-1.82 0-2.216-.475-.474-.474-.632-1.107-.712-1.978 0-.633.159-1.424.475-2.294a9 9 0 0 1 1.424-2.532 13.7 13.7 0 0 1 2.136-2.136c.871-.633 1.741-.949 2.69-1.108.871-.079 1.504.079 2.057.475.475.396.792 1.029.792 1.82 0 .712-.159 1.503-.475 2.452-.317.95-.791 1.741-1.424 2.611a13.6 13.6 0 0 1-2.136 2.136c-.792.633-1.741.95-2.611 1.029Zm.158-1.503c.475-.079.949-.317 1.503-.791a9.6 9.6 0 0 0 1.503-1.583c.475-.633.871-1.266 1.108-1.978a4.5 4.5 0 0 0 .396-1.899c0-.395-.159-.712-.396-.87q-.356-.237-.949-.237c-.475.079-.95.316-1.504.712a9.6 9.6 0 0 0-1.503 1.582c-.474.633-.87 1.266-1.107 1.978-.317.712-.475 1.345-.396 1.899 0 .475.158.791.396.949q.475.238.949.238Zm16.377-10.365 2.532-.316c.633-.079 1.187-.079 1.741.079.554.079.949.316 1.345.554.395.237.712.633.949 1.028.237.396.317.871.396 1.424 0 .633-.079 1.345-.396 2.137-.237.791-.712 1.424-1.266 2.136-.554.633-1.266 1.187-2.136 1.74-.87.475-1.899.792-3.006.95l-5.301.633zm2.295 1.187-1.108.158-3.639 7.2 2.848-.316c.633-.08 1.266-.317 1.899-.633.633-.317 1.107-.712 1.582-1.187s.791-1.029 1.029-1.582.395-1.187.316-1.741c0-.633-.316-1.187-.87-1.503-.554-.396-1.266-.475-2.057-.396Zm7.754 5.776 3.402-.396-.791 1.503-5.38.633 5.221-10.285 5.38-.633-.791 1.582-3.323.396-1.424 2.769 3.086-.395-.791 1.503-3.086.395zm18.037-10.365-.87 6.804h.079l6.408-7.516 3.086-.395-5.222 10.285-1.899.237 4.035-7.753h-.079l-6.962 8.149-1.424.158.949-7.2h-.079l-3.877 7.517-1.899.237 5.222-10.285zm8.228 8.624-2.136.238 8.466-10.681 1.503-.159-.238 9.653-1.74.237.079-2.294-3.956.474zm6.092-7.674-2.848 3.639 2.769-.316zm3.641 6.487 5.222-10.285 2.294-.237c.792-.079 1.504 0 1.978.395.475.317.791.871.791 1.504 0 .316 0 .633-.158 1.028-.079.396-.316.712-.554 1.029-.237.316-.633.633-1.028.87-.396.237-.95.475-1.503.633l1.345 4.114-1.82.237-1.266-3.876-1.187.158-2.215 4.272zm7.279-9.098-.87.079-1.504 2.927 1.504-.158q.593-.118.949-.237c.237-.079.475-.317.712-.475.158-.158.317-.396.396-.633s.158-.475.158-.712-.158-.475-.316-.633c-.238-.158-.554-.237-1.029-.158Zm2.53 7.912.791-1.504 7.595-7.516-4.193.475.87-1.662 6.646-.791-.712 1.424-7.674 7.596 5.063-.633-.87 1.661zm18.118-12.026c.633-.079 1.187-.079 1.662.079.474.079.949.316 1.345.633.395.316.633.633.87 1.107.237.475.317.95.396 1.504 0 .712-.159 1.503-.475 2.294-.317.791-.791 1.503-1.345 2.215a7.9 7.9 0 0 1-2.136 1.741 6.34 6.34 0 0 1-2.69.87c-.633.079-1.187.079-1.662-.079-.554-.079-.949-.316-1.345-.633-.395-.316-.633-.633-.87-1.107-.237-.475-.316-.95-.396-1.504 0-.712.08-1.503.396-2.294s.712-1.503 1.345-2.215a7.9 7.9 0 0 1 2.136-1.741 6.3 6.3 0 0 1 2.769-.87Zm-2.136 8.703c.633-.079 1.187-.238 1.82-.633.554-.317 1.107-.712 1.503-1.187.475-.475.791-1.029 1.029-1.582s.395-1.187.395-1.741c0-.712-.316-1.187-.791-1.582-.475-.396-1.187-.475-1.978-.396-.633.079-1.266.317-1.82.633-.553.317-1.107.712-1.503 1.187s-.791 1.028-1.028 1.582c-.238.554-.396 1.187-.317 1.741 0 .712.317 1.186.791 1.582.396.396 1.108.554 1.899.396Zm18.513-.871-7.12.871.791-1.504c1.266-.87 2.374-1.582 3.244-2.215s1.582-1.266 2.136-1.74c.554-.554.949-.95 1.187-1.425.237-.395.316-.791.316-1.186a.83.83 0 0 0-.395-.712c-.238-.159-.554-.238-1.029-.159-.633.08-1.108.396-1.503.95-.396.554-.633 1.266-.633 2.136h-1.741c.079-.554.159-1.108.396-1.582.237-.554.475-1.029.791-1.424.317-.396.712-.792 1.187-1.029.475-.316.949-.475 1.503-.554s.949-.079 1.345 0 .712.238.949.396c.238.158.475.474.554.712.159.316.238.554.238.949 0 .95-.475 1.978-1.504 3.007-1.028 1.107-2.531 2.215-4.43 3.56l4.351-.554zm6.725-.633c-1.028.159-1.82 0-2.215-.474-.396-.475-.633-1.108-.712-1.978 0-.633.158-1.424.474-2.295.317-.87.792-1.74 1.425-2.531a13.6 13.6 0 0 1 2.136-2.137c.87-.632 1.74-.949 2.69-1.107.87-.079 1.503.079 2.057.475.475.395.791 1.028.791 1.819 0 .712-.158 1.503-.475 2.453-.316.949-.791 1.74-1.424 2.611a13.7 13.7 0 0 1-2.136 2.136c-.791.633-1.741.949-2.611 1.028Zm.158-1.582c.475-.079.95-.316 1.504-.791a9.6 9.6 0 0 0 1.503-1.582c.475-.633.87-1.266 1.107-1.978a4.5 4.5 0 0 0 .396-1.899c0-.396-.158-.712-.396-.87q-.355-.238-.949-.238c-.475.079-.949.317-1.503.712a9.6 9.6 0 0 0-1.503 1.583c-.475.633-.871 1.265-1.108 1.978-.317.712-.475 1.345-.396 1.898 0 .475.159.792.396.95q.475.356.949.237Zm13.688-.316-7.121.87.791-1.503c1.266-.871 2.374-1.583 3.244-2.216s1.582-1.265 2.136-1.74c.554-.554.95-.95 1.187-1.424.237-.396.316-.791.316-1.187a.83.83 0 0 0-.395-.712c-.237-.158-.554-.237-1.029-.158-.633.079-1.107.395-1.503.949s-.633 1.266-.633 2.136h-1.74c.079-.554.158-1.107.395-1.582.238-.554.475-1.029.791-1.424.317-.396.712-.791 1.187-1.029.475-.316.95-.474 1.503-.554.554-.079.95-.079 1.345 0 .396.08.712.238.95.396.237.158.474.475.554.712.079.237.237.554.237.95 0 .949-.475 1.977-1.503 3.006-1.029 1.108-2.532 2.215-4.431 3.56l4.352-.554zm7.913-10.602 5.697-.712-.95 1.582-3.797.475-1.504 2.294c.08-.079.238-.079.396-.158.158 0 .317-.079.475-.079.395-.079.712 0 1.028 0 .317.079.633.158.871.316.237.159.474.396.553.633a2.1 2.1 0 0 1 .238.95c0 .554-.079 1.028-.317 1.503a5.2 5.2 0 0 1-.949 1.345c-.396.396-.87.791-1.424 1.029-.554.316-1.187.474-1.899.553-1.029.159-1.82 0-2.532-.395-.633-.396-1.028-.95-1.107-1.741l1.74-.554c.079.396.238.633.475.871.316.237.712.316 1.345.237l.949-.237c.317-.159.633-.317.871-.554.237-.238.474-.475.632-.712a2.1 2.1 0 0 0 .238-.95c0-.474-.237-.791-.554-1.028-.396-.158-.87-.238-1.582-.158-.317.079-.712.158-1.108.237-.396.158-.791.237-1.187.396z"/></g><defs><linearGradient id="b" x1="39.416" x2="32.289" y1="153.675" y2="63.529" gradientUnits="userSpaceOnUse"><stop stop-color="#5912E2"/><stop offset="1" stop-color="#51008E"/></linearGradient><linearGradient id="c" x1="207.143" x2="200.017" y1="140.416" y2="50.27" gradientUnits="userSpaceOnUse"><stop stop-color="#5912E2"/><stop offset="1" stop-color="#51008E"/></linearGradient><linearGradient id="d" x1="32.581" x2="34.465" y1="50.044" y2="137.798" gradientUnits="userSpaceOnUse"><stop offset=".116" stop-color="#E1AEFF"/><stop offset="1" stop-color="#FF2232"/></linearGradient><linearGradient id="e" x1="160.53" x2="162.413" y1="47.298" y2="135.052" gradientUnits="userSpaceOnUse"><stop offset=".116" stop-color="#E1AEFF"/><stop offset="1" stop-color="#FF2232"/></linearGradient><linearGradient id="f" x1="201.387" x2="203.271" y1="46.421" y2="134.175" gradientUnits="userSpaceOnUse"><stop offset=".116" stop-color="#E1AEFF"/><stop offset="1" stop-color="#FF2232"/></linearGradient><linearGradient id="g" x1="378.992" x2="371.786" y1="156.263" y2="53.108" gradientUnits="userSpaceOnUse"><stop stop-color="#5912E2"/><stop offset="1" stop-color="#51008E"/></linearGradient><linearGradient id="h" x1="525.191" x2="517.985" y1="146.051" y2="42.896" gradientUnits="userSpaceOnUse"><stop stop-color="#5912E2"/><stop offset="1" stop-color="#51008E"/></linearGradient><linearGradient id="i" x1="570.694" x2="563.488" y1="142.872" y2="39.717" gradientUnits="userSpaceOnUse"><stop stop-color="#5912E2"/><stop offset="1" stop-color="#51008E"/></linearGradient><linearGradient id="j" x1="424.273" x2="417.067" y1="153.101" y2="49.946" gradientUnits="userSpaceOnUse"><stop stop-color="#5912E2"/><stop offset="1" stop-color="#51008E"/></linearGradient><linearGradient id="k" x1="485.482" x2="491.132" y1="40.082" y2="154.953" gradientUnits="userSpaceOnUse"><stop offset=".116" stop-color="#E1AEFF"/><stop offset="1" stop-color="#FF2232"/></linearGradient><filter id="a" width="641.697" height="188.513" x=".531" y="0" color-interpolation-filters="sRGB" filterUnits="userSpaceOnUse"><feFlood flood-opacity="0" result="BackgroundImageFix"/><feColorMatrix in="SourceAlpha" result="hardAlpha" values="0 0 0 0 0 0 0 0 0 0 0 0 0 0 0 0 0 0 127 0"/><feOffset dy="4"/><feGaussianBlur stdDeviation="2"/><feComposite in2="hardAlpha" operator="out"/><feColorMatrix values="0 0 0 0 0 0 0 0 0 0 0 0 0 0 0 0 0 0 0.25 0"/><feBlend in2="BackgroundImageFix" result="effect1_dropShadow_3_47870"/><feBlend in="SourceGraphic" in2="effect1_dropShadow_3_47870" result="shape"/></filter></defs></svg>