<?xml version="1.0" encoding="UTF-8"?>
<svg id="Capa_2" data-name="Capa 2" xmlns="http://www.w3.org/2000/svg" viewBox="0 0 245.94 93.65">
  <defs>
    <style>
      .cls-1 {
        fill: #fff;
      }
    </style>
  </defs>
  <g id="Capa_1-2" data-name="Capa 1">
    <path class="cls-1" d="M140.56,7.25s18.19.39,25.55,4.26,13.94,8.52,35.23,8.9,26.71-7.74,39.1-1.94c5.51,2.58,6.12,6.31,5.1,9.65-1.41,4.63-5.82,7.68-10.66,7.73-7.34.08-19.64.7-22.31,3.91-3.38,4.06,4.47,6.94,6.5,7.6.67.22,1.31.5,1.93.84,1.69.95,4.35,2.93,5.12,6.27.93,4.02-8.29,8.54-12.02,10.19-.94.42-1.92.7-2.94.85-5.57.82-25.89,3.88-29.55,5.21-4.26,1.55-6.19,3.74-8.52,9.61s-10.84,8.97-53.03,10.9-72.39,4.26-99.1,0-26.58-31.74-6.97-32.77,48.52-.05,45.94-8.03S17.6,16.67,49.08,12.54,86.76-2.04,115.66.35"/>
  </g>
</svg>