<?xml version="1.0" encoding="UTF-8"?>
<svg id="Capa_2" data-name="Capa 2" xmlns="http://www.w3.org/2000/svg" viewBox="0 0 359.92 84.51">
  <defs>
    <style>
      .cls-1 {
        fill: #fff;
      }
    </style>
  </defs>
  <g id="Capa_1-2" data-name="Capa 1">
    <path class="cls-1" d="M20.97,41.2c.69-.06,1.38-.07,2.06-.07,4.19-.04,21.41-.39,33.12-3.09,13.42-3.1,33.03-10.84,40.77-11.35s25.81-1.55,40.77-14.45S196.54-3.26,212.03,3.97s41.81,16.68,65.55,16.6,67.85,8.9,78.45,17.47c22.67,18.32-60.31,35.42-79.3,39.04-2.28.43-4.51,1.05-6.69,1.85-5.2,1.92-16.83,5.56-30.14,5.56-18.06,0-39.74-11.87-78.45-8.26-20.25,1.89-30.76,2.09-36.17,1.84-4.55-.2-9.09.38-13.46,1.64-6.89,1.97-17.13,4.47-25.73,4.78-14.45.52-24.26-5.68-26.32-9.29s10.84-8.26,6.19-10.84S7.64,66.42,1.45,59.71s7.85-17.49,19.52-18.51Z"/>
  </g>
</svg>